<?xml version="1.0" encoding="utf-8"?>
<!-- Generator: Adobe Illustrator 27.7.0, SVG Export Plug-In . SVG Version: 6.00 Build 0)  -->
<svg version="1.1" id="Layer_1" xmlns="http://www.w3.org/2000/svg" xmlns:xlink="http://www.w3.org/1999/xlink" x="0px" y="0px"
	 viewBox="0 0 774 819" style="enable-background:new 0 0 774 819;" xml:space="preserve">
<style type="text/css">
	.st0{fill:url(#SVGID_1_);}
	.st1{fill:#112551;}
	.st2{fill:url(#SVGID_00000065782328227441197000000010814117370733927834_);}
	.st3{opacity:0.8;}
	.st4{fill:#F0F0F0;}
	.st5{fill:#FFFFFF;}
	.st6{fill:#E0E0E0;}
	.st7{fill:#04ACA4;}
	.st8{opacity:0.65;fill:#FFFFFF;enable-background:new    ;}
	.st9{opacity:0.25;fill:#FFFFFF;enable-background:new    ;}
	.st10{opacity:0.5;fill:#FFFFFF;enable-background:new    ;}
	.st11{opacity:0.4;fill:#FFFFFF;enable-background:new    ;}
	.st12{opacity:0.2;enable-background:new    ;}
	.st13{opacity:0.15;enable-background:new    ;}
	.st14{fill:#37474F;}
	.st15{fill:#455A64;}
	.st16{opacity:0.3;fill:#FFFFFF;enable-background:new    ;}
	.st17{opacity:0.1;enable-background:new    ;}
	.st18{opacity:0.25;}
	.st19{opacity:0.5;fill:#04ACA4;enable-background:new    ;}
	.st20{opacity:0.4;enable-background:new    ;}
	.st21{opacity:0.45;enable-background:new    ;}
	.st22{opacity:0.3;enable-background:new    ;}
	.st23{opacity:0.3;}
	.st24{opacity:0.5;fill:#F5F5F5;enable-background:new    ;}
	.st25{fill:#FAFAFA;}
	.st26{opacity:0.2;fill:#FFFFFF;enable-background:new    ;}
	.st27{opacity:0.1;fill:#FFFFFF;enable-background:new    ;}
	.st28{fill:#263238;}
	.st29{fill:#FFA8A7;}
	.st30{fill:#F28F8F;}
	.st31{fill:#EBEBEB;}
	.st32{fill:url(#SVGID_00000035494405393959257660000014943215825821955212_);}
</style>
<linearGradient id="SVGID_1_" gradientUnits="userSpaceOnUse" x1="388" y1="-652" x2="388" y2="-81" gradientTransform="matrix(1 0 0 1 0 776)">
	<stop  offset="0" style="stop-color:#BCA5FF;stop-opacity:0"/>
	<stop  offset="0.8914" style="stop-color:#214D76"/>
	<stop  offset="1" style="stop-color:#214D76;stop-opacity:0"/>
</linearGradient>
<path class="st0" d="M99,124l164.5,571h204.1L677,124H99z"/>
<path class="st1" d="M374,587.8c-134.8,0-244.1-63.1-244.1-140.9v20c0,77.8,109.3,140.9,244.1,140.9s244.1-63.1,244.1-140.9v-20
	C618.1,524.7,508.8,587.8,374,587.8z"/>
<radialGradient id="SVGID_00000025419835592781260390000010982219995065215418_" cx="703.725" cy="17.2681" r="1" gradientTransform="matrix(-2.9526 43.6413 -43.6413 -2.9526 3436.2427 -30062.4746)" gradientUnits="userSpaceOnUse">
	<stop  offset="8.877530e-03" style="stop-color:#DEF9FA"/>
	<stop  offset="0.1723" style="stop-color:#BEF3F5"/>
	<stop  offset="0.4204" style="stop-color:#9DEDF0"/>
	<stop  offset="0.5512" style="stop-color:#7DE7EB"/>
	<stop  offset="0.7154" style="stop-color:#5CE1E6"/>
	<stop  offset="1" style="stop-color:#33BBCF"/>
</radialGradient>
<path style="fill:url(#SVGID_00000025419835592781260390000010982219995065215418_);" d="M588.2,641.7c-18.8-1.3-33-17.5-31.7-36.1
	c1.4-18.8,17.5-33,36.3-31.7c18.6,1.4,32.8,17.5,31.6,36.3C623.1,628.7,606.9,642.9,588.2,641.7z"/>
<g class="st3">
	<path class="st4" d="M374,587.8c134.8,0,244.1-63.1,244.1-140.9S508.8,306,374,306s-244.1,63-244.1,140.8
		C129.9,524.7,239.2,587.8,374,587.8z"/>
	<path class="st5" d="M583,519.7L505.5,475c-30.7-17.7-51.7-40.1-60.7-64.6c-6.2-16.6-6.4-34.9-0.5-51.6l21,3.2L440,341.8L400.5,352
		l21.4,3.3l-4,8.6c-9.3,20-10.3,41.2-2.9,61.4c4.1,10.8,10,20.9,17.4,29.7l-177.1-95.2l12.7-7.3l-41.1,1.8l-3.2,23.7l12.7-7.3
		l165,102.3c-16.9-4.6-34.1-8-51.5-10.1c-35.4-4.3-71.2-3.7-106.4,1.7l-19.4,3l-5.4-11.7L201,478.7l35,14.6l-6-12.9
		c31.2-3.9,62.8-4,94-0.2c42.5,5.2,81.2,17.3,112,35l80.1,46.2c10.5-4.3,20.6-9.3,30.4-14.9C559.8,539,572,530,583,519.7z"/>
	<path class="st6" d="M195.3,446.5c14.9,0,27-7,27-15.6s-12.1-15.6-27-15.6s-27,7-27,15.6S180.4,446.5,195.3,446.5z"/>
	<path class="st6" d="M300.7,457.7c13.4,0,24.3-6.3,24.3-14.1c0-7.8-10.9-14-24.3-14s-24.3,6.3-24.3,14
		C276.3,451.4,287.2,457.7,300.7,457.7z"/>
	<path class="st6" d="M346.8,401.5c11.5,0,20.7-5.4,20.7-12s-9.3-12-20.7-12s-20.7,5.4-20.7,12S335.4,401.5,346.8,401.5z"/>
	<path class="st6" d="M395.6,391.4c-8.1-4.7-21.2-4.7-29.3,0s-8.1,12.3,0,16.9s21.2,4.7,29.3,0C403.7,403.7,403.7,396.1,395.6,391.4
		z"/>
	<path class="st6" d="M446.6,561.3L431,570c-1.3,0.7-2.8,1-4.3,1s-3-0.4-4.3-1l-68-39.2c-2.4-1.4-2.4-3.6,0-5l15.6-8.6
		c1.3-0.7,2.8-1,4.3-1s3,0.4,4.3,1l68,39.2C449,557.7,449,559.9,446.6,561.3z"/>
	<path class="st7" d="M300.7,430.5c0,0,1.7-18-2.9-32.4s-13.4-25-23.3-28.5s-20.6,3.6-11.5,12.9s26.3,27.2,28.7,53.4L300.7,430.5z"
		/>
	<path class="st8" d="M300.7,430.5c0,0,1.7-18-2.9-32.4s-13.4-25-23.3-28.5s-20.6,3.6-11.5,12.9s26.3,27.2,28.7,53.4L300.7,430.5z"
		/>
	<path class="st5" d="M295.2,426.4h0.1c0.1,0,0.3-0.1,0.4-0.2s0.1-0.3,0.1-0.4c-1.3-30.2-18.1-48-26.8-52.6c-0.1-0.1-0.3-0.1-0.4,0
		c-0.1,0-0.3,0.1-0.3,0.3c-0.1,0.1-0.1,0.3,0,0.4c0,0.1,0.1,0.3,0.3,0.3c8.5,4.5,24.7,22.2,26.2,51.8c0,0.1,0.1,0.2,0.2,0.3
		C294.9,426.4,295.1,426.4,295.2,426.4z"/>
	<path class="st7" d="M246,400.1c0.3,1.8,1.7,3.1,3.2,4.1s2.9,2.2,3.4,4c0.9,3.5-3.1,6.9-2.1,10.3c0.3,0.7,0.7,1.3,1.2,1.9
		c0.5,0.5,1.2,1,1.9,1.3c1.1,0.5,2.3,0.9,3.5,1.3c0.6,0.1,1.2,0.3,1.7,0.3c1.8,0.1,3.5,0.8,4.8,1.9c2,2,1.9,5.2,2.7,7.9
		c1,3.2,2.4,6.1,5.4,7.8c2.8,1.4,5.9,1.9,8.9,1.4l11.2-6.5c3.7-1.1,3.9-4.7,4-8.5c0-3.7-1.4-7.3-3.9-10c-1.6-1.6-3.4-3-5.4-4
		c-1.1-0.4-2.1-1.1-2.9-2c-0.5-0.9-0.8-1.9-0.8-3c-0.1-1.2-0.2-2.4-0.5-3.6c-0.4-1.2-1-2.3-1.8-3.4c-0.8-1.2-1.9-2-3.2-2.5
		c-1.9-0.8-3.9-1.3-6-1.5c-2.6-0.3-5.5,0.4-8-0.4s-4.8-2.2-7.4-2.7c-1.4-0.3-2.8-0.4-4.2-0.1s-2.7,0.9-3.8,1.8
		c-0.6,0.5-1.1,1.1-1.4,1.9C246.1,398.6,245.9,399.4,246,400.1z"/>
	<path class="st9" d="M246,400.1c0.3,1.8,1.7,3.1,3.2,4.1s2.9,2.2,3.4,4c0.9,3.5-3.1,6.9-2.1,10.3c0.3,0.7,0.7,1.3,1.2,1.9
		c0.5,0.5,1.2,1,1.9,1.3c1.1,0.5,2.3,0.9,3.5,1.3c0.6,0.1,1.2,0.3,1.7,0.3c1.8,0.1,3.5,0.8,4.8,1.9c2,2,1.9,5.2,2.7,7.9
		c1,3.2,2.4,6.1,5.4,7.8c2.8,1.4,5.9,1.9,8.9,1.4l11.2-6.5c3.7-1.1,3.9-4.7,4-8.5c0-3.7-1.4-7.3-3.9-10c-1.6-1.6-3.4-3-5.4-4
		c-1.1-0.4-2.1-1.1-2.9-2c-0.5-0.9-0.8-1.9-0.8-3c-0.1-1.2-0.2-2.4-0.5-3.6c-0.4-1.2-1-2.3-1.8-3.4c-0.8-1.2-1.9-2-3.2-2.5
		c-1.9-0.8-3.9-1.3-6-1.5c-2.6-0.3-5.5,0.4-8-0.4s-4.8-2.2-7.4-2.7c-1.4-0.3-2.8-0.4-4.2-0.1s-2.7,0.9-3.8,1.8
		c-0.6,0.5-1.1,1.1-1.4,1.9C246.1,398.6,245.9,399.4,246,400.1z"/>
	<path class="st5" d="M278.1,416.4c-0.1-0.1-0.1-0.2-0.2-0.3c-7.4-10.9-19.5-15.9-23.5-16.7c-0.1,0-0.2,0-0.3,0.1s-0.1,0.1-0.2,0.2
		c0,0.1,0,0.2,0.1,0.3c0.1,0.1,0.1,0.1,0.3,0.2c3.8,0.8,15.1,5.4,22.3,15.4c-2.8-1.1-5.8-1.6-8.8-1.5s-6,0.8-8.7,2.1l-0.1,0.1
		l-0.1,0.1c0,0.1,0,0.1,0,0.2s0,0.1,0,0.1c0,0.1,0.1,0.1,0.1,0.1c0.1,0,0.1,0.1,0.2,0.1s0.2,0,0.2-0.1c2.8-1.3,5.9-2,9-2
		s6.2,0.6,9,1.9c3.8,5.7,5.7,12.4,5.6,19.3c0,0.1,0,0.2,0.1,0.3c0.1,0.1,0.2,0.1,0.3,0.1c0.1,0,0.2,0,0.3-0.1
		c0.1-0.1,0.1-0.2,0.1-0.3C283.9,429,282,422.2,278.1,416.4z"/>
	<path class="st7" d="M366,387.2c0,0-4.1-20.3,3-41.4c4-11.8,11.5-17.3,16.2-18c5.2-0.7,10.7,4.2,6.2,12
		c-4.3,7.4-12.8,10.6-17.4,29.8c-1.5,5.9-2.3,11.9-2.4,18c0,0.3-0.1,0.6-0.2,0.8c-0.1,0.3-0.4,0.5-0.6,0.6c-0.3,0.1-0.5,0.2-0.8,0.2
		s-0.6-0.1-0.8-0.2L366,387.2z"/>
	<path class="st10" d="M366,387.2c0,0-4.1-20.3,3-41.4c4-11.8,11.5-17.3,16.2-18c5.2-0.7,10.7,4.2,6.2,12
		c-4.3,7.4-12.8,10.6-17.4,29.8c-1.5,5.9-2.3,11.9-2.4,18c0,0.3-0.1,0.6-0.2,0.8c-0.1,0.3-0.4,0.5-0.6,0.6c-0.3,0.1-0.5,0.2-0.8,0.2
		s-0.6-0.1-0.8-0.2L366,387.2z"/>
	<path class="st5" d="M369.2,382.7c0.1,0,0.2-0.1,0.2-0.1c0.1-0.1,0.1-0.2,0.1-0.2c-2.8-23.3,8-43.1,16.6-49.7
		c0.1-0.1,0.1-0.1,0.1-0.2s0-0.2-0.1-0.2c-0.1-0.1-0.1-0.1-0.2-0.1s-0.2,0-0.2,0.1c-8.6,6.7-19.6,26.7-16.8,50.3
		c0,0.1,0.1,0.2,0.1,0.2C369,382.7,369.1,382.7,369.2,382.7z"/>
	<path class="st7" d="M369.6,389.4c0.2,0.1,0.5,0.2,0.7,0.2s0.5,0,0.8-0.1c0.2-0.1,0.5-0.2,0.6-0.4c0.2-0.2,0.3-0.4,0.4-0.7
		c1.1-4.7,4-9.5,9.4-14.7c6.2-6,14.9-11.5,13.5-16.7s-8.3-4-13.1-1s-15.5,14-13,33L369.6,389.4z"/>
	<path class="st8" d="M369.6,389.4c0.2,0.1,0.5,0.2,0.7,0.2s0.5,0,0.8-0.1c0.2-0.1,0.5-0.2,0.6-0.4c0.2-0.2,0.3-0.4,0.4-0.7
		c1.1-4.7,4-9.5,9.4-14.7c6.2-6,14.9-11.5,13.5-16.7s-8.3-4-13.1-1s-15.5,14-13,33L369.6,389.4z"/>
	<path class="st5" d="M370.1,389.7c0.1,0,0.2,0,0.2-0.1c0.1-0.1,0.1-0.1,0.1-0.2c-0.6-14.3,11.2-30.2,19.7-33.2
		c0.1,0,0.1-0.1,0.2-0.2c0-0.1,0-0.2,0-0.2c0-0.1-0.1-0.1-0.2-0.2c-0.1,0-0.2,0-0.3,0c-8.4,2.2-21.4,19.5-20.1,33.8
		c0,0.1,0,0.2,0.1,0.2C369.9,389.7,369.9,389.7,370.1,389.7L370.1,389.7z"/>
	<path class="st7" d="M252.7,180l3.3-1.9l44.7,25.8v22.9l-3.3,1.9l-44.7-25.8l-9.9-17.2L252.7,180z"/>
	<path class="st11" d="M252.7,180l3.3-1.9l44.7,25.8v22.9l-3.3,1.9l-44.7-25.8l-9.9-17.2L252.7,180z"/>
	<path class="st7" d="M297.4,205.8L252.7,180l-9.9,5.7l9.9,17.2l44.7,25.8V205.8z"/>
	<path class="st7" d="M300.7,203.9l-3.3,1.9v22.9l3.3-1.9V203.9z"/>
	<path class="st12" d="M300.7,203.9l-3.3,1.9v22.9l3.3-1.9V203.9z"/>
	<path class="st7" d="M348.7,133.6l-3.3-1.9l-44.7,25.8v22.9l3.3,1.9l44.7-25.8l9.9-17.1L348.7,133.6z"/>
	<path class="st11" d="M348.7,133.6l-3.3-1.9l-44.7,25.8v22.9l3.3,1.9l44.7-25.8l9.9-17.1L348.7,133.6z"/>
	<path class="st7" d="M304,159.4l44.7-25.8l9.9,5.7l-9.9,17.1L304,182.2V159.4z"/>
	<path class="st13" d="M304,159.4l44.7-25.8l9.9,5.7l-9.9,17.1L304,182.2V159.4z"/>
	<path class="st7" d="M300.7,157.5l3.3,1.9v22.9l-3.3-1.9V157.5z"/>
	<path class="st12" d="M300.7,157.5l3.3,1.9v22.9l-3.3-1.9V157.5z"/>
	<path class="st14" d="M315,431c-7.9-4.6-20.8-4.6-28.7,0c-4,2.3-5.9,5.3-5.9,8.3v3.4c0,3,2,6,5.9,8.3c7.9,4.6,20.8,4.6,28.7,0
		c4-2.3,5.9-5.3,5.9-8.3c0-0.6,0-2.9,0-3.4C321,436.3,319,433.3,315,431z"/>
	<path class="st15" d="M286.3,431c7.9-4.6,20.8-4.6,28.7,0c7.9,4.6,7.9,12,0,16.6s-20.8,4.6-28.7,0C278.4,443,278.4,435.6,286.3,431
		z"/>
	<path class="st14" d="M304.1,144.9c0-0.5,0-0.9-0.2-1.4c-0.2-0.4-0.4-0.8-0.7-1.2c-0.3-0.3-0.7-0.6-1.1-0.8s-0.9-0.3-1.4-0.3
		s-0.9,0.1-1.4,0.3c-0.4,0.2-0.8,0.5-1.1,0.8c-0.3,0.3-0.6,0.7-0.7,1.2c-0.2,0.4-0.2,0.9-0.2,1.4v293.7c0,0.3,0.1,0.6,0.3,0.8
		s0.4,0.4,0.7,0.6c0.8,0.4,1.6,0.6,2.4,0.6s1.7-0.2,2.4-0.6c0.3-0.1,0.5-0.3,0.7-0.6s0.3-0.5,0.3-0.8L304.1,144.9L304.1,144.9z"/>
	<path class="st7" d="M300.7,207v-22.9l3.3-1.9l44.7,25.8l9.9,17.1l-9.9,5.7l-3.3,1.9L300.7,207z"/>
	<path class="st16" d="M300.7,207v-22.9l3.3-1.9l44.7,25.8l9.9,17.1l-9.9,5.7l-3.3,1.9L300.7,207z"/>
	<path class="st7" d="M348.7,208l-3.3,1.9l9.9,17.2l3.3-1.9L348.7,208z"/>
	<path class="st17" d="M348.7,208l-3.3,1.9l9.9,17.2l3.3-1.9L348.7,208z"/>
	<path class="st7" d="M300.7,184.1l44.7,25.8l9.9,17.2l-9.9,5.7L300.7,207V184.1z"/>
	<path class="st7" d="M300.7,253.5v-22.9l-3.3-1.9l-44.7,25.8l-9.9,17.2l9.9,5.7l3.3,1.9L300.7,253.5z"/>
	<path class="st16" d="M300.7,253.5v-22.9l-3.3-1.9l-44.7,25.8l-9.9,17.2l9.9,5.7l3.3,1.9L300.7,253.5z"/>
	<path class="st7" d="M252.7,254.5l-9.9,17.2l3.3,1.9l9.9-17.2L252.7,254.5z"/>
	<path class="st7" d="M300.7,230.6L256,256.4l-9.9,17.1l9.9,5.7l44.7-25.8V230.6z"/>
	<path class="st13" d="M300.7,230.6L256,256.4l-9.9,17.1l9.9,5.7l44.7-25.8V230.6z"/>
	<path class="st7" d="M365.9,383.6c-1.1-1.8-2.7-3.2-4.6-4.2c-7.5-4.3-19.6-4.3-27.1,0c-1.9,1-3.4,2.5-4.6,4.2h-1v3.9
		c0.1,2.7,2,5.4,5.6,7.5c7.5,4.3,19.6,4.3,27.1,0c3.6-2.1,5.5-4.8,5.6-7.5v-3.9H365.9z"/>
	<g class="st18">
		<path d="M365.9,383.6c-1.1-1.8-2.7-3.2-4.6-4.2c-7.5-4.3-19.6-4.3-27.1,0c-1.9,1-3.4,2.5-4.6,4.2h-1v3.9c0.1,2.7,2,5.4,5.6,7.5
			c7.5,4.3,19.6,4.3,27.1,0c3.6-2.1,5.5-4.8,5.6-7.5v-3.9H365.9z"/>
	</g>
	<path class="st17" d="M347.8,376.2c-4.7-0.1-9.4,1-13.5,3.2c-1.9,1-3.4,2.5-4.6,4.2h-1v3.9c0.1,2.7,2,5.4,5.6,7.5
		c4.2,2.2,8.8,3.3,13.5,3.2V376.2z"/>
	<path class="st17" d="M337.3,378c-1.1,0.4-2.1,0.9-3.1,1.5c-1.9,1-3.4,2.4-4.6,4.2h-1v3.9c0.1,2.7,2,5.4,5.6,7.5c1,0.6,2,1,3.1,1.4
		V378z"/>
	<path class="st19" d="M358.2,378c1.1,0.4,2.1,0.9,3.1,1.5c1.9,1,3.4,2.4,4.6,4.2h1v3.9c-0.1,2.7-2,5.4-5.6,7.5c-1,0.6-2,1-3.1,1.4
		V378z"/>
	<path class="st7" d="M361.3,375.8c-7.5-4.3-19.6-4.3-27.1,0s-7.5,11.3,0,15.6c7.5,4.3,19.6,4.3,27.1,0S368.8,380.1,361.3,375.8z"/>
	<path class="st12" d="M361.3,375.8c-7.5-4.3-19.6-4.3-27.1,0s-7.5,11.3,0,15.6c7.5,4.3,19.6,4.3,27.1,0S368.8,380.1,361.3,375.8z"
		/>
	<path class="st7" d="M356.6,378.7c-2.8-1.2-5.8-1.9-8.8-1.9s-6,0.6-8.8,1.9c-2.5,1.3-3.9,3-3.9,5c0,1.9,1.4,3.7,3.9,4.9
		c2.8,1.2,5.8,1.9,8.8,1.9s6-0.6,8.8-1.9c2.5-1.3,3.9-3,3.9-4.9C360.5,381.7,359.1,380,356.6,378.7z"/>
	<path class="st20" d="M356.6,378.7c-2.8-1.2-5.8-1.9-8.8-1.9s-6,0.6-8.8,1.9c-2.5,1.3-3.9,3-3.9,5c0,1.9,1.4,3.7,3.9,4.9
		c2.8,1.2,5.8,1.9,8.8,1.9s6-0.6,8.8-1.9c2.5-1.3,3.9-3,3.9-4.9C360.5,381.7,359.1,380,356.6,378.7z"/>
	<path class="st7" d="M360.9,376.5c-4.1-2.1-8.6-3.1-13.1-3.1s-9.1,1.1-13.1,3.1c-3.4,1.9-5.2,4.5-5.2,7.1s1.8,5.2,5.2,7.1
		c4.1,2.1,8.6,3.1,13.1,3.1s9.1-1.1,13.1-3.1c3.3-1.9,5.2-4.5,5.2-7.1S364.2,378.5,360.9,376.5z M356.6,388.6
		c-2.8,1.2-5.8,1.9-8.8,1.9s-6-0.6-8.8-1.9c-2.5-1.3-3.9-3-3.9-4.9c0-2,1.4-3.7,3.9-5c2.8-1.2,5.8-1.9,8.8-1.9s6,0.6,8.8,1.9
		c2.5,1.3,3.9,3,3.9,5C360.5,385.6,359.1,387.3,356.6,388.6z"/>
	<path class="st16" d="M360.9,376.5c-4.1-2.1-8.6-3.1-13.1-3.1s-9.1,1.1-13.1,3.1c-3.4,1.9-5.2,4.5-5.2,7.1s1.8,5.2,5.2,7.1
		c4.1,2.1,8.6,3.1,13.1,3.1s9.1-1.1,13.1-3.1c3.3-1.9,5.2-4.5,5.2-7.1S364.2,378.5,360.9,376.5z M356.6,388.6
		c-2.8,1.2-5.8,1.9-8.8,1.9s-6-0.6-8.8-1.9c-2.5-1.3-3.9-3-3.9-4.9c0-2,1.4-3.7,3.9-5c2.8-1.2,5.8-1.9,8.8-1.9s6,0.6,8.8,1.9
		c2.5,1.3,3.9,3,3.9,5C360.5,385.6,359.1,387.3,356.6,388.6z"/>
	<path class="st12" d="M356.3,388c4.7-2.4,4.7-6.3,0-8.7c-4.7-2.4-12.3-2.4-17,0s-4.7,6.3,0,8.7C344,390.4,351.6,390.4,356.3,388z"
		/>
	<path class="st7" d="M356.3,388c4.7-2.4,4.7-6.3,0-8.7c-4.7-2.4-12.3-2.4-17,0s-4.7,6.3,0,8.7C344,390.4,351.6,390.4,356.3,388z"/>
	<path class="st21" d="M356.3,388c4.7-2.4,4.7-6.3,0-8.7c-4.7-2.4-12.3-2.4-17,0s-4.7,6.3,0,8.7C344,390.4,351.6,390.4,356.3,388z"
		/>
	<path class="st7" d="M356.3,380.9c-4.7-2.4-12.3-2.4-17,0c-2,1-3.1,2.3-3.4,3.6c0.3,1.3,1.5,2.5,3.4,3.5c4.7,2.4,12.3,2.4,17,0
		c1.9-1,3.1-2.2,3.4-3.5C359.4,383.1,358.2,381.9,356.3,380.9z"/>
	<path class="st22" d="M356.3,380.9c-4.7-2.4-12.3-2.4-17,0c-2,1-3.1,2.3-3.4,3.6c0.3,1.3,1.5,2.5,3.4,3.5c4.7,2.4,12.3,2.4,17,0
		c1.9-1,3.1-2.2,3.4-3.5C359.4,383.1,358.2,381.9,356.3,380.9z"/>
	<path class="st7" d="M348.9,379.4v1.8l-0.6,0.6l-1.1,1.2v-1.8L348.9,379.4z"/>
	<path class="st22" d="M348.9,379.4v1.8l-0.6,0.6l-1.1,1.2v-1.8L348.9,379.4z"/>
	<path class="st7" d="M347.2,381.1v1c-0.6,0.2-1.1,0.4-1.7,0.5c-0.2,0.1-0.5,0.1-0.7,0c-0.1,0-0.2-0.1-0.4-0.1
		c-0.4-0.2-0.5-0.6,0.3-1.1c0.4-0.2,0.8-0.4,1.2-0.4C346.4,380.9,346.8,380.9,347.2,381.1z"/>
	<path class="st21" d="M347.2,381.1v1c-0.6,0.2-1.1,0.4-1.7,0.5c-0.2,0.1-0.5,0.1-0.7,0c-0.1,0-0.2-0.1-0.4-0.1
		c-0.4-0.2-0.5-0.6,0.3-1.1c0.4-0.2,0.8-0.4,1.2-0.4C346.4,380.9,346.8,380.9,347.2,381.1z"/>
	<path class="st7" d="M355.2,386.1v1.5l-1.9,1.1l-1.4-0.8c-1.7,0.8-3.7,0.9-5.5,0.2v-1.5l0.9-0.9l-0.9,0.2c-1.4,0.4-3,0.2-4.3-0.5
		c-0.9-0.5-1.3-1-1.3-1.6v-1.5l0.2-0.7l-0.5-0.3v-1.5l1.4,0.8c-0.3,0.2-0.5,0.4-0.7,0.7c-0.2,0.3-0.3,0.6-0.3,0.9
		c0,0.6,0.4,1.1,1.3,1.6c0.8,0.4,1.8,0.7,2.7,0.7c0.9,0,1.9-0.1,2.7-0.5c1.6-0.5,2.7-1.1,3.7-0.6c0.6,0.3,0.4,0.7-0.2,1.1
		c-0.4,0.2-0.9,0.4-1.3,0.4c-0.5,0-0.9-0.1-1.4-0.2l-1.8,1.8c0.3,0.1,0.7,0.2,1,0.3c1.5,0.3,3.1,0.1,4.5-0.5l1.4,0.8L355.2,386.1z"
		/>
	<path class="st12" d="M340.7,382.4c0,0.6,0.4,1.1,1.3,1.6c0.8,0.4,1.8,0.7,2.7,0.7c0.9,0,1.9-0.1,2.7-0.5c1.6-0.5,2.7-1.1,3.7-0.6
		c0.6,0.3,0.4,0.7-0.2,1.1c-0.4,0.2-0.9,0.4-1.3,0.4c-0.5,0-0.9-0.1-1.4-0.2l-1.8,1.8c0.3,0.1,0.7,0.2,1,0.3
		c1.5,0.3,3.1,0.1,4.5-0.5l1.4,0.8l1.9-1.1v1.5l-1.9,1.1l-1.4-0.8c-1.7,0.8-3.7,0.9-5.5,0.2v-1.5l0.9-0.9l-0.9,0.2
		c-1.4,0.4-3,0.2-4.3-0.5c-0.9-0.5-1.3-1-1.3-1.6L340.7,382.4l0.1-0.6"/>
	<path class="st21" d="M340.4,379.9v1.5l0.5,0.3c0.2-0.4,0.5-0.7,0.9-1L340.4,379.9z"/>
	<path class="st7" d="M354.9,385.1c0,0.2,0,0.5-0.1,0.7l-1-0.6c0.3-0.1,0.5-0.3,0.7-0.6c0.2-0.3,0.3-0.6,0.4-0.9
		C354.9,384.2,354.9,385.1,354.9,385.1z"/>
	<g class="st23">
		<path d="M354.9,385.1c0,0.2,0,0.5-0.1,0.7l-1-0.6c0.3-0.1,0.5-0.3,0.7-0.6c0.2-0.3,0.3-0.6,0.4-0.9
			C354.9,384.2,354.9,385.1,354.9,385.1z"/>
	</g>
	<path class="st7" d="M354.9,385.9l-1.1-0.6c0.3-0.1,0.6-0.4,0.8-0.7c0.2-0.3,0.3-0.7,0.3-1c0-0.1,0-0.1,0-0.1
		c-0.1-0.3-0.2-0.6-0.4-0.9c-0.2-0.3-0.5-0.5-0.8-0.6c-0.8-0.5-1.7-0.7-2.6-0.7h-0.2h-0.2h-0.3h-0.2c-0.4,0.1-0.8,0.2-1.2,0.3
		l-0.6,0.2l-0.8,0.3l-0.3,0.1c-0.6,0.2-1.1,0.4-1.7,0.5c-0.2,0.1-0.5,0.1-0.7,0c-0.1,0-0.2-0.1-0.3-0.1c-0.4-0.2-0.5-0.6,0.3-1.1
		c0.4-0.2,0.8-0.4,1.2-0.4c0.4,0,0.9,0,1.3,0.2l1.7-1.7c-1.7-0.5-3.5-0.4-5.2,0.3l-1.4-0.8l-2,1.1l1.4,0.8c-0.3,0.2-0.5,0.4-0.7,0.7
		s-0.3,0.6-0.3,0.9c0,0.6,0.4,1.1,1.3,1.6c0.8,0.4,1.8,0.7,2.7,0.7c0.9,0,1.9-0.1,2.7-0.5c1.6-0.5,2.7-1.1,3.7-0.6
		c0.6,0.3,0.4,0.7-0.2,1.1c-0.4,0.2-0.9,0.4-1.3,0.4c-0.5,0-0.9-0.1-1.4-0.2l-1.8,1.8c0.3,0.1,0.7,0.2,1,0.3
		c0.6,0.1,1.2,0.2,1.8,0.1c1-0.1,1.9-0.3,2.8-0.7l1.4,0.8l1.9-1.1L354.9,385.9z"/>
	<g class="st23">
		<path class="st5" d="M354.9,385.9l-1.1-0.6c0.3-0.1,0.6-0.4,0.8-0.7c0.2-0.3,0.3-0.7,0.3-1c0-0.1,0-0.1,0-0.1
			c-0.1-0.3-0.2-0.6-0.4-0.9c-0.2-0.3-0.5-0.5-0.8-0.6c-0.8-0.5-1.7-0.7-2.6-0.7h-0.2h-0.2h-0.3h-0.2c-0.4,0.1-0.8,0.2-1.2,0.3
			l-0.6,0.2l-0.8,0.3l-0.3,0.1c-0.6,0.2-1.1,0.4-1.7,0.5c-0.2,0.1-0.5,0.1-0.7,0c-0.1,0-0.2-0.1-0.3-0.1c-0.4-0.2-0.5-0.6,0.3-1.1
			c0.4-0.2,0.8-0.4,1.2-0.4c0.4,0,0.9,0,1.3,0.2l1.7-1.7c-1.7-0.5-3.5-0.4-5.2,0.3l-1.4-0.8l-2,1.1l1.4,0.8
			c-0.3,0.2-0.5,0.4-0.7,0.7s-0.3,0.6-0.3,0.9c0,0.6,0.4,1.1,1.3,1.6c0.8,0.4,1.8,0.7,2.7,0.7c0.9,0,1.9-0.1,2.7-0.5
			c1.6-0.5,2.7-1.1,3.7-0.6c0.6,0.3,0.4,0.7-0.2,1.1c-0.4,0.2-0.9,0.4-1.3,0.4c-0.5,0-0.9-0.1-1.4-0.2l-1.8,1.8
			c0.3,0.1,0.7,0.2,1,0.3c0.6,0.1,1.2,0.2,1.8,0.1c1-0.1,1.9-0.3,2.8-0.7l1.4,0.8l1.9-1.1L354.9,385.9z"/>
	</g>
	<path class="st7" d="M351.8,386.4v1.5l1.4,0.8v-1.5L351.8,386.4z"/>
	<path class="st21" d="M351.8,386.4v1.5l1.4,0.8v-1.5L351.8,386.4z"/>
	<path class="st24" d="M340.4,379.9l2-1.1l1.4,0.8l-1.4-0.6L340.4,379.9z"/>
	<path class="st24" d="M344.7,381.3c0.4-0.2,0.8-0.4,1.2-0.4c0.4,0,0.9,0,1.3,0.2l1.7-1.7l-1.7,1.6c-0.4-0.1-0.9-0.2-1.3-0.1
		C345.5,380.9,345.1,381.1,344.7,381.3z"/>
	<path class="st24" d="M346.3,386.6c0.3,0.1,0.7,0.2,1,0.3c0.6,0.1,1.2,0.2,1.8,0.1c-0.9,0-1.7-0.2-2.5-0.5l1.5-1.7L346.3,386.6z"/>
	<path class="st24" d="M351.8,386.4l1.4,0.6l1.9-0.9l-1.9,1.1L351.8,386.4z"/>
	<path class="st24" d="M334.8,376.8c5.1-3.1,13-3.4,13-3.4c-4.6-0.1-9.1,1-13.1,3.1c-3.4,1.9-5.2,4.5-5.2,7.1
		C329.5,383.6,329.6,379.9,334.8,376.8z"/>
	<path class="st24" d="M346.3,394.6c5.2,0.3,10.4-0.8,15-3.2c4.3-2.5,6.1-5.8,5.5-9.1c0,0,0.8,5.2-5.8,8.9
		C354.4,394.9,346.3,394.6,346.3,394.6z"/>
	<path class="st7" d="M364.6,378.2c-1.1-1.8-2.7-3.2-4.6-4.2c-7.5-4.3-19.6-4.3-27.1,0c-1.9,1-3.4,2.5-4.6,4.2h-1v3.9
		c0.1,2.7,2,5.4,5.6,7.5c7.5,4.3,19.6,4.3,27.1,0c3.6-2.1,5.5-4.8,5.6-7.5v-3.9H364.6z"/>
	<g class="st18">
		<path d="M364.6,378.2c-1.1-1.8-2.7-3.2-4.6-4.2c-7.5-4.3-19.6-4.3-27.1,0c-1.9,1-3.4,2.5-4.6,4.2h-1v3.9c0.1,2.7,2,5.4,5.6,7.5
			c7.5,4.3,19.6,4.3,27.1,0c3.6-2.1,5.5-4.8,5.6-7.5v-3.9H364.6z"/>
	</g>
	<path class="st17" d="M346.5,370.7c-4.7-0.1-9.4,1-13.5,3.3c-1.9,1-3.4,2.5-4.6,4.2h-1v3.9c0.1,2.7,2,5.4,5.6,7.5
		c4.2,2.2,8.8,3.3,13.5,3.2V370.7z"/>
	<path class="st17" d="M336.1,372.5c-1.1,0.4-2.1,0.9-3.1,1.5c-1.9,1-3.4,2.5-4.6,4.2h-1v3.9c0.1,2.7,2,5.4,5.6,7.5
		c1,0.6,2,1,3.1,1.4V372.5z"/>
	<path class="st19" d="M357,372.5c1.1,0.4,2.1,0.9,3.1,1.4c1.9,1,3.4,2.5,4.6,4.2h1v3.9c-0.1,2.7-2,5.4-5.6,7.5c-1,0.6-2,1-3.1,1.4
		V372.5z"/>
	<path class="st7" d="M360.1,370.4c-7.5-4.3-19.6-4.3-27.1,0s-7.5,11.3,0,15.6c7.5,4.3,19.6,4.3,27.1,0
		C367.5,381.7,367.5,374.7,360.1,370.4z"/>
	<path class="st12" d="M360.1,370.4c-7.5-4.3-19.6-4.3-27.1,0s-7.5,11.3,0,15.6c7.5,4.3,19.6,4.3,27.1,0
		C367.5,381.7,367.5,374.7,360.1,370.4z"/>
	<path class="st7" d="M355.3,373.2c-2.8-1.2-5.8-1.9-8.8-1.9s-6,0.6-8.8,1.9c-2.5,1.3-3.9,3-3.9,5c0,1.9,1.4,3.7,3.9,5
		c2.8,1.2,5.8,1.9,8.8,1.9s6-0.6,8.8-1.9c2.5-1.3,3.9-3,3.9-5S357.9,374.5,355.3,373.2z"/>
	<path class="st20" d="M355.3,373.2c-2.8-1.2-5.8-1.9-8.8-1.9s-6,0.6-8.8,1.9c-2.5,1.3-3.9,3-3.9,5c0,1.9,1.4,3.7,3.9,5
		c2.8,1.2,5.8,1.9,8.8,1.9s6-0.6,8.8-1.9c2.5-1.3,3.9-3,3.9-5S357.9,374.5,355.3,373.2z"/>
	<path class="st7" d="M359.6,371.1c-4.1-2.1-8.6-3.1-13.1-3.1s-9.1,1.1-13.1,3.1c-3.4,1.9-5.2,4.5-5.2,7.1s1.8,5.2,5.2,7.1
		c4.1,2.1,8.6,3.1,13.1,3.1s9.1-1.1,13.1-3.1c3.4-1.9,5.2-4.4,5.2-7.1C364.8,375.5,363,373,359.6,371.1z M355.3,383.2
		c-2.8,1.2-5.8,1.9-8.8,1.9s-6-0.6-8.8-1.9c-2.5-1.3-3.9-3-3.9-5s1.4-3.7,3.9-5c2.8-1.2,5.8-1.9,8.8-1.9s6,0.6,8.8,1.9
		c2.5,1.3,3.9,3,3.9,5C359.2,380.1,357.9,381.9,355.3,383.2z"/>
	<path class="st16" d="M359.6,371.1c-4.1-2.1-8.6-3.1-13.1-3.1s-9.1,1.1-13.1,3.1c-3.4,1.9-5.2,4.5-5.2,7.1s1.8,5.2,5.2,7.1
		c4.1,2.1,8.6,3.1,13.1,3.1s9.1-1.1,13.1-3.1c3.4-1.9,5.2-4.4,5.2-7.1C364.8,375.5,363,373,359.6,371.1z M355.3,383.2
		c-2.8,1.2-5.8,1.9-8.8,1.9s-6-0.6-8.8-1.9c-2.5-1.3-3.9-3-3.9-5s1.4-3.7,3.9-5c2.8-1.2,5.8-1.9,8.8-1.9s6,0.6,8.8,1.9
		c2.5,1.3,3.9,3,3.9,5C359.2,380.1,357.9,381.9,355.3,383.2z"/>
	<path class="st12" d="M355,382.6c4.7-2.4,4.7-6.3,0-8.7c-4.7-2.4-12.3-2.4-17,0s-4.7,6.3,0,8.7S350.3,385,355,382.6z"/>
	<path class="st7" d="M355,382.6c4.7-2.4,4.7-6.3,0-8.7c-4.7-2.4-12.3-2.4-17,0s-4.7,6.3,0,8.7S350.3,385,355,382.6z"/>
	<path class="st21" d="M355,382.6c4.7-2.4,4.7-6.3,0-8.7c-4.7-2.4-12.3-2.4-17,0s-4.7,6.3,0,8.7S350.3,385,355,382.6z"/>
	<path class="st7" d="M355,375.5c-4.7-2.4-12.3-2.4-17,0c-2,1-3.1,2.2-3.4,3.5c0.3,0.8,0.7,1.5,1.3,2.1c0.6,0.6,1.3,1.1,2.1,1.4
		c4.7,2.4,12.3,2.4,17,0c0.8-0.3,1.5-0.8,2.1-1.4s1-1.3,1.3-2.1C358.1,377.7,357,376.5,355,375.5z"/>
	<path class="st22" d="M355,375.5c-4.7-2.4-12.3-2.4-17,0c-2,1-3.1,2.2-3.4,3.5c0.3,0.8,0.7,1.5,1.3,2.1c0.6,0.6,1.3,1.1,2.1,1.4
		c4.7,2.4,12.3,2.4,17,0c0.8-0.3,1.5-0.8,2.1-1.4s1-1.3,1.3-2.1C358.1,377.7,357,376.5,355,375.5z"/>
	<path class="st7" d="M347.7,373.9v1.8l-0.6,0.6l-1.1,1.2v-1.8L347.7,373.9z"/>
	<path class="st22" d="M347.7,373.9v1.8l-0.6,0.6l-1.1,1.2v-1.8L347.7,373.9z"/>
	<path class="st7" d="M346,375.7v1c-0.6,0.2-1.1,0.4-1.7,0.5c-0.2,0-0.5,0-0.7,0c-0.1,0-0.2-0.1-0.3-0.1c-0.4-0.3-0.5-0.6,0.3-1.1
		c0.4-0.2,0.8-0.4,1.2-0.4C345.2,375.5,345.6,375.5,346,375.7z"/>
	<path class="st21" d="M346,375.7v1c-0.6,0.2-1.1,0.4-1.7,0.5c-0.2,0-0.5,0-0.7,0c-0.1,0-0.2-0.1-0.3-0.1c-0.4-0.3-0.5-0.6,0.3-1.1
		c0.4-0.2,0.8-0.4,1.2-0.4C345.2,375.5,345.6,375.5,346,375.7z"/>
	<path class="st7" d="M353.9,380.7v1.5l-1.9,1.1l-1.4-0.8c-1.7,0.8-3.7,0.9-5.5,0.2v-1.5l0.9-0.9l-0.9,0.2c-0.7,0.2-1.5,0.3-2.2,0.2
		c-0.7-0.1-1.5-0.3-2.1-0.7c-0.9-0.5-1.3-1-1.3-1.6V377l0.1-0.6l-0.5-0.3v-1.5l1.4,0.8c-0.3,0.2-0.5,0.4-0.7,0.7s-0.3,0.6-0.3,0.9
		c0,0.5,0.4,1.1,1.3,1.6c1.9,1.1,3.7,0.7,5.4,0.2c1.7-0.5,2.7-1.1,3.6-0.6c0.6,0.3,0.4,0.7-0.2,1.1c-0.4,0.2-0.9,0.4-1.3,0.4
		c-0.5,0-0.9-0.1-1.4-0.2l-1.8,1.8c0.3,0.1,0.7,0.2,1,0.3c1.5,0.3,3.1,0.1,4.5-0.5l1.4,0.8L353.9,380.7z"/>
	<path class="st12" d="M339.5,377c0,0.5,0.4,1.1,1.3,1.6c1.9,1.1,3.7,0.7,5.5,0.2c1.7-0.5,2.7-1.1,3.6-0.6c0.6,0.3,0.4,0.7-0.2,1.1
		c-0.4,0.2-0.9,0.4-1.3,0.4c-0.5,0-0.9,0-1.4-0.2l-1.8,1.8c0.3,0.1,0.7,0.2,1,0.3c1.5,0.3,3.1,0.1,4.5-0.6l1.4,0.8l1.9-1.1v1.5
		l-1.9,1.1l-1.4-0.8c-1.7,0.8-3.7,0.9-5.5,0.2v-1.5l0.9-0.9l-0.9,0.2c-0.7,0.2-1.5,0.3-2.2,0.2c-0.7-0.1-1.5-0.3-2.1-0.7
		c-0.9-0.5-1.3-1-1.3-1.6L339.5,377l0.1-0.6"/>
	<path class="st21" d="M339.1,374.5v1.5l0.5,0.3c0.2-0.4,0.5-0.7,0.9-1L339.1,374.5z"/>
	<path class="st7" d="M353.6,379.7c0,0.2,0,0.5-0.1,0.7l-1-0.5c0.3-0.1,0.5-0.3,0.7-0.6c0.2-0.3,0.3-0.6,0.4-0.9
		C353.6,378.8,353.6,379.6,353.6,379.7z"/>
	<g class="st23">
		<path d="M353.6,379.7c0,0.2,0,0.5-0.1,0.7l-1-0.5c0.3-0.1,0.5-0.3,0.7-0.6c0.2-0.3,0.3-0.6,0.4-0.9
			C353.6,378.8,353.6,379.6,353.6,379.7z"/>
	</g>
	<path class="st7" d="M353.6,380.5l-1.1-0.6c0.3-0.1,0.6-0.4,0.8-0.7c0.2-0.3,0.3-0.7,0.3-1v-0.1c0-0.5-0.4-1-1.2-1.5
		c-0.8-0.4-1.7-0.7-2.6-0.7h-0.5h-0.2H349h-0.1c-0.4,0.1-0.8,0.1-1.2,0.3l-0.6,0.2l-0.8,0.3l-0.3,0.1c-0.6,0.2-1.1,0.4-1.7,0.5
		c-0.2,0-0.5,0-0.7,0c-0.1,0-0.2-0.1-0.4-0.1c-0.4-0.2-0.5-0.6,0.3-1.1c0.4-0.2,0.8-0.4,1.2-0.4c0.4,0,0.9,0,1.3,0.2l1.7-1.7
		c-1.7-0.5-3.6-0.4-5.2,0.3l-1.4-0.8l-2,1.1l1.4,0.8c-0.3,0.2-0.5,0.4-0.7,0.7c-0.2,0.3-0.3,0.6-0.3,0.9c0,0.5,0.4,1.1,1.3,1.6
		c1.9,1.1,3.7,0.7,5.4,0.2c1.7-0.6,2.7-1.1,3.6-0.6c0.6,0.3,0.4,0.7-0.2,1.1c-0.4,0.2-0.9,0.4-1.3,0.4c-0.5,0-0.9,0-1.4-0.2
		l-1.8,1.8c0.3,0.1,0.7,0.2,1,0.3c0.6,0.1,1.2,0.2,1.8,0.1c1-0.1,1.9-0.3,2.8-0.7l1.4,0.8l1.9-1.1L353.6,380.5z"/>
	<g class="st23">
		<path class="st5" d="M353.6,380.5l-1.1-0.6c0.3-0.1,0.6-0.4,0.8-0.7c0.2-0.3,0.3-0.7,0.3-1v-0.1c0-0.5-0.4-1-1.2-1.5
			c-0.8-0.4-1.7-0.7-2.6-0.7h-0.5h-0.2H349h-0.1c-0.4,0.1-0.8,0.1-1.2,0.3l-0.6,0.2l-0.8,0.3l-0.3,0.1c-0.6,0.2-1.1,0.4-1.7,0.5
			c-0.2,0-0.5,0-0.7,0c-0.1,0-0.2-0.1-0.4-0.1c-0.4-0.2-0.5-0.6,0.3-1.1c0.4-0.2,0.8-0.4,1.2-0.4c0.4,0,0.9,0,1.3,0.2l1.7-1.7
			c-1.7-0.5-3.6-0.4-5.2,0.3l-1.4-0.8l-2,1.1l1.4,0.8c-0.3,0.2-0.5,0.4-0.7,0.7c-0.2,0.3-0.3,0.6-0.3,0.9c0,0.5,0.4,1.1,1.3,1.6
			c1.9,1.1,3.7,0.7,5.4,0.2c1.7-0.6,2.7-1.1,3.6-0.6c0.6,0.3,0.4,0.7-0.2,1.1c-0.4,0.2-0.9,0.4-1.3,0.4c-0.5,0-0.9,0-1.4-0.2
			l-1.8,1.8c0.3,0.1,0.7,0.2,1,0.3c0.6,0.1,1.2,0.2,1.8,0.1c1-0.1,1.9-0.3,2.8-0.7l1.4,0.8l1.9-1.1L353.6,380.5z"/>
	</g>
	<path class="st7" d="M350.6,381v1.5l1.4,0.8v-1.5L350.6,381z"/>
	<path class="st21" d="M350.6,381v1.5l1.4,0.8v-1.5L350.6,381z"/>
	<path class="st24" d="M339.1,374.5l1.9-1.1l1.4,0.8l-1.4-0.6L339.1,374.5z"/>
	<path class="st24" d="M343.5,375.9c0.4-0.2,0.8-0.4,1.2-0.4c0.4,0,0.9,0,1.3,0.2l1.7-1.7l-1.7,1.6c-0.4-0.2-0.9-0.2-1.3-0.1
		S343.8,375.6,343.5,375.9z"/>
	<path class="st24" d="M345,381.2c0.3,0.1,0.7,0.2,1,0.3c0.6,0.1,1.2,0.2,1.8,0.1c-0.9,0-1.7-0.2-2.5-0.5l1.5-1.7L345,381.2z"/>
	<path class="st24" d="M350.6,381l1.4,0.6l1.9-0.9l-1.9,1.1L350.6,381z"/>
	<path class="st24" d="M333.5,371.4c5.1-3.1,13-3.4,13-3.4c-4.6-0.1-9.1,1-13.1,3.1c-3.4,1.9-5.2,4.5-5.2,7.1
		C328.2,378.2,328.4,374.5,333.5,371.4z"/>
	<path class="st24" d="M345,389.2c5.2,0.3,10.4-0.8,15-3.2c4.3-2.5,6.1-5.8,5.5-9c0,0,0.8,5.2-5.8,8.8
		C353.1,389.5,345,389.2,345,389.2z"/>
	<path class="st7" d="M367.4,372.7c-1.1-1.8-2.7-3.2-4.6-4.2c-7.5-4.3-19.6-4.3-27.1,0c-1.9,1-3.4,2.5-4.6,4.2h-1v3.9
		c0.1,2.7,2,5.4,5.6,7.5c7.5,4.3,19.6,4.3,27.1,0c3.6-2.1,5.5-4.8,5.6-7.5v-3.9H367.4z"/>
	<g class="st18">
		<path d="M367.4,372.7c-1.1-1.8-2.7-3.2-4.6-4.2c-7.5-4.3-19.6-4.3-27.1,0c-1.9,1-3.4,2.5-4.6,4.2h-1v3.9c0.1,2.7,2,5.4,5.6,7.5
			c7.5,4.3,19.6,4.3,27.1,0c3.6-2.1,5.5-4.8,5.6-7.5v-3.9H367.4z"/>
	</g>
	<path class="st17" d="M349.3,365.2c-4.7-0.1-9.4,1-13.5,3.2c-1.9,1-3.4,2.5-4.6,4.2h-1v3.9c0.1,2.7,2,5.4,5.6,7.5
		c4.2,2.2,8.8,3.3,13.5,3.2V365.2z"/>
	<path class="st17" d="M338.8,367c-1.1,0.4-2.1,0.9-3.1,1.4c-1.9,1-3.4,2.5-4.6,4.2h-1v3.9c0.1,2.7,2,5.4,5.6,7.5c1,0.6,2,1,3.1,1.4
		V367z"/>
	<path class="st19" d="M359.7,367c1.1,0.4,2.1,0.9,3.1,1.4c1.9,1,3.4,2.5,4.6,4.2h1v3.9c-0.1,2.7-2,5.4-5.6,7.5c-1,0.6-2,1-3.1,1.4
		V367z"/>
	<path class="st7" d="M362.8,364.9c-7.5-4.3-19.6-4.3-27.1,0s-7.5,11.3,0,15.6c7.5,4.3,19.6,4.3,27.1,0S370.3,369.2,362.8,364.9z"/>
	<path class="st12" d="M362.8,364.9c-7.5-4.3-19.6-4.3-27.1,0s-7.5,11.3,0,15.6c7.5,4.3,19.6,4.3,27.1,0S370.3,369.2,362.8,364.9z"
		/>
	<path class="st7" d="M358.1,367.8c-2.8-1.2-5.8-1.9-8.8-1.9s-6,0.6-8.8,1.9c-2.5,1.3-3.9,3-3.9,5s1.4,3.7,3.9,5
		c2.8,1.2,5.8,1.9,8.8,1.9s6-0.6,8.8-1.9c2.5-1.3,3.9-3,3.9-5S360.6,369,358.1,367.8z"/>
	<path class="st20" d="M358.1,367.8c-2.8-1.2-5.8-1.9-8.8-1.9s-6,0.6-8.8,1.9c-2.5,1.3-3.9,3-3.9,5s1.4,3.7,3.9,5
		c2.8,1.2,5.8,1.9,8.8,1.9s6-0.6,8.8-1.9c2.5-1.3,3.9-3,3.9-5S360.6,369,358.1,367.8z"/>
	<path class="st7" d="M362.4,365.6c-4.1-2.1-8.6-3.1-13.1-3.1c-4.6,0-9.1,1.1-13.1,3.1c-3.4,1.9-5.2,4.4-5.2,7.1
		c0,2.6,1.8,5.2,5.2,7.1c4.1,2.1,8.6,3.1,13.1,3.1c4.6,0,9.1-1.1,13.1-3.1c3.3-1.9,5.2-4.5,5.2-7.1S365.7,367.6,362.4,365.6z
		 M358.1,377.7c-2.8,1.2-5.8,1.9-8.8,1.9s-6-0.6-8.8-1.9c-2.5-1.3-3.9-3-3.9-5c0-1.9,1.4-3.7,3.9-5c2.8-1.2,5.8-1.9,8.8-1.9
		s6,0.6,8.8,1.9c2.5,1.3,3.9,3,3.9,5S360.6,376.4,358.1,377.7z"/>
	<path class="st16" d="M362.4,365.6c-4.1-2.1-8.6-3.1-13.1-3.1c-4.6,0-9.1,1.1-13.1,3.1c-3.4,1.9-5.2,4.4-5.2,7.1
		c0,2.6,1.8,5.2,5.2,7.1c4.1,2.1,8.6,3.1,13.1,3.1c4.6,0,9.1-1.1,13.1-3.1c3.3-1.9,5.2-4.5,5.2-7.1S365.7,367.6,362.4,365.6z
		 M358.1,377.7c-2.8,1.2-5.8,1.9-8.8,1.9s-6-0.6-8.8-1.9c-2.5-1.3-3.9-3-3.9-5c0-1.9,1.4-3.7,3.9-5c2.8-1.2,5.8-1.9,8.8-1.9
		s6,0.6,8.8,1.9c2.5,1.3,3.9,3,3.9,5S360.6,376.4,358.1,377.7z"/>
	<path class="st12" d="M357.8,377.1c4.7-2.4,4.7-6.3,0-8.7c-4.7-2.4-12.3-2.4-17,0s-4.7,6.3,0,8.7S353.1,379.5,357.8,377.1z"/>
	<path class="st7" d="M357.8,377.1c4.7-2.4,4.7-6.3,0-8.7c-4.7-2.4-12.3-2.4-17,0s-4.7,6.3,0,8.7S353.1,379.5,357.8,377.1z"/>
	<path class="st21" d="M357.8,377.1c4.7-2.4,4.7-6.3,0-8.7c-4.7-2.4-12.3-2.4-17,0s-4.7,6.3,0,8.7S353.1,379.5,357.8,377.1z"/>
	<path class="st7" d="M357.8,370c-4.7-2.4-12.3-2.4-17,0c-2,1-3.1,2.2-3.4,3.5c0.3,1.3,1.5,2.6,3.4,3.6c4.7,2.4,12.3,2.4,17,0
		c2-1,3.1-2.2,3.4-3.6C360.9,372.2,359.7,371,357.8,370z"/>
	<path class="st22" d="M357.8,370c-4.7-2.4-12.3-2.4-17,0c-2,1-3.1,2.2-3.4,3.5c0.3,1.3,1.5,2.6,3.4,3.6c4.7,2.4,12.3,2.4,17,0
		c2-1,3.1-2.2,3.4-3.6C360.9,372.2,359.7,371,357.8,370z"/>
	<path class="st7" d="M350.4,368.5v1.8l-0.6,0.6l-1.1,1.2v-1.8L350.4,368.5z"/>
	<path class="st22" d="M350.4,368.5v1.8l-0.6,0.6l-1.1,1.2v-1.8L350.4,368.5z"/>
	<path class="st7" d="M348.7,370.2v1c-0.6,0.2-1.1,0.4-1.7,0.5c-0.2,0-0.5,0-0.7,0c-0.1,0-0.2-0.1-0.3-0.2c-0.4-0.2-0.5-0.6,0.3-1.1
		c0.4-0.2,0.8-0.4,1.2-0.4C347.9,370,348.3,370,348.7,370.2z"/>
	<path class="st21" d="M348.7,370.2v1c-0.6,0.2-1.1,0.4-1.7,0.5c-0.2,0-0.5,0-0.7,0c-0.1,0-0.2-0.1-0.3-0.2
		c-0.4-0.2-0.5-0.6,0.3-1.1c0.4-0.2,0.8-0.4,1.2-0.4C347.9,370,348.3,370,348.7,370.2z"/>
	<path class="st7" d="M356.7,375.2v1.5l-1.9,1.1l-1.4-0.8c-1.7,0.8-3.7,0.9-5.5,0.2v-1.5l0.9-0.9l-0.9,0.2c-0.7,0.2-1.5,0.3-2.2,0.2
		c-0.7-0.1-1.5-0.3-2.1-0.7c-0.9-0.5-1.3-1-1.3-1.6v-1.5l0.1-0.6l-0.5-0.3V369l1.4,0.8c-0.3,0.2-0.5,0.4-0.7,0.7
		c-0.2,0.3-0.3,0.6-0.3,0.9c0,0.5,0.4,1.1,1.3,1.6c1.9,1.1,3.7,0.7,5.4,0.2c1.7-0.5,2.7-1.1,3.6-0.6c0.6,0.3,0.4,0.7-0.2,1.1
		c-0.4,0.2-0.9,0.4-1.3,0.4c-0.5,0-0.9-0.1-1.4-0.2l-1.8,1.8c0.3,0.1,0.7,0.2,1,0.3c1.5,0.3,3.1,0.1,4.5-0.5l1.4,0.8L356.7,375.2z"
		/>
	<path class="st12" d="M342.2,371.5c0,0.5,0.4,1.1,1.3,1.6c1.9,1.1,3.7,0.7,5.4,0.2c1.7-0.5,2.7-1.1,3.6-0.6
		c0.6,0.3,0.4,0.7-0.2,1.1c-0.4,0.2-0.9,0.4-1.3,0.4c-0.5,0-0.9-0.1-1.4-0.2l-1.8,1.8c0.3,0.1,0.7,0.2,1,0.3
		c1.5,0.3,3.1,0.1,4.5-0.5l1.4,0.8l1.9-1.1v1.5l-1.9,1.1l-1.4-0.8c-1.7,0.8-3.7,0.9-5.5,0.2v-1.5l0.9-0.9l-0.9,0.2
		c-0.7,0.2-1.5,0.3-2.2,0.2c-0.7-0.1-1.5-0.3-2.1-0.7c-0.9-0.5-1.3-1.1-1.3-1.6V371.5l0.1-0.6"/>
	<path class="st21" d="M341.9,369v1.5l0.5,0.3c0.2-0.4,0.5-0.7,0.9-1L341.9,369z"/>
	<path class="st7" d="M356.4,374.2c0,0.2,0,0.5-0.1,0.7l-1-0.6c0.3-0.1,0.5-0.3,0.7-0.6c0.2-0.3,0.3-0.6,0.4-0.9
		C356.4,373.3,356.4,374.1,356.4,374.2z"/>
	<g class="st23">
		<path d="M356.4,374.2c0,0.2,0,0.5-0.1,0.7l-1-0.6c0.3-0.1,0.5-0.3,0.7-0.6c0.2-0.3,0.3-0.6,0.4-0.9
			C356.4,373.3,356.4,374.1,356.4,374.2z"/>
	</g>
	<path class="st7" d="M356.4,375l-1.1-0.6c0.3-0.1,0.6-0.4,0.8-0.7c0.2-0.3,0.3-0.7,0.3-1c0-0.1,0-0.1,0-0.1
		c-0.1-0.3-0.2-0.6-0.4-0.9c-0.2-0.3-0.5-0.5-0.8-0.6c-0.8-0.4-1.7-0.7-2.6-0.7h-0.5h-0.2h-0.1h-0.1c-0.4,0.1-0.8,0.1-1.2,0.3
		l-0.6,0.2L349,371l-0.3,0.1c-0.6,0.2-1.1,0.4-1.7,0.5c-0.2,0.1-0.5,0.1-0.7,0c-0.1,0-0.2-0.1-0.4-0.1c-0.4-0.2-0.5-0.6,0.3-1.1
		c0.4-0.2,0.8-0.4,1.2-0.4c0.4,0,0.9,0,1.3,0.2l1.7-1.7c-1.7-0.5-3.6-0.4-5.2,0.3l-1.4-0.8l-1.9,1.1l1.4,0.8
		c-0.3,0.2-0.5,0.4-0.7,0.7c-0.2,0.3-0.3,0.6-0.3,0.9c0,0.5,0.4,1.1,1.3,1.6c1.9,1.1,3.7,0.7,5.4,0.2c1.7-0.5,2.7-1.1,3.6-0.6
		c0.6,0.3,0.4,0.7-0.2,1.1c-0.4,0.2-0.9,0.4-1.3,0.4c-0.5,0-0.9-0.1-1.4-0.2l-1.8,1.8c0.3,0.1,0.7,0.2,1,0.3
		c0.6,0.1,1.2,0.2,1.8,0.1c1-0.1,1.9-0.3,2.8-0.7l1.4,0.8l1.9-1.1L356.4,375z"/>
	<g class="st23">
		<path class="st5" d="M356.4,375l-1.1-0.6c0.3-0.1,0.6-0.4,0.8-0.7c0.2-0.3,0.3-0.7,0.3-1c0-0.1,0-0.1,0-0.1
			c-0.1-0.3-0.2-0.6-0.4-0.9c-0.2-0.3-0.5-0.5-0.8-0.6c-0.8-0.4-1.7-0.7-2.6-0.7h-0.5h-0.2h-0.1h-0.1c-0.4,0.1-0.8,0.1-1.2,0.3
			l-0.6,0.2L349,371l-0.3,0.1c-0.6,0.2-1.1,0.4-1.7,0.5c-0.2,0.1-0.5,0.1-0.7,0c-0.1,0-0.2-0.1-0.4-0.1c-0.4-0.2-0.5-0.6,0.3-1.1
			c0.4-0.2,0.8-0.4,1.2-0.4c0.4,0,0.9,0,1.3,0.2l1.7-1.7c-1.7-0.5-3.6-0.4-5.2,0.3l-1.4-0.8l-1.9,1.1l1.4,0.8
			c-0.3,0.2-0.5,0.4-0.7,0.7c-0.2,0.3-0.3,0.6-0.3,0.9c0,0.5,0.4,1.1,1.3,1.6c1.9,1.1,3.7,0.7,5.4,0.2c1.7-0.5,2.7-1.1,3.6-0.6
			c0.6,0.3,0.4,0.7-0.2,1.1c-0.4,0.2-0.9,0.4-1.3,0.4c-0.5,0-0.9-0.1-1.4-0.2l-1.8,1.8c0.3,0.1,0.7,0.2,1,0.3
			c0.6,0.1,1.2,0.2,1.8,0.1c1-0.1,1.9-0.3,2.8-0.7l1.4,0.8l1.9-1.1L356.4,375z"/>
	</g>
	<path class="st7" d="M353.3,375.5v1.5l1.4,0.8v-1.5L353.3,375.5z"/>
	<path class="st21" d="M353.3,375.5v1.5l1.4,0.8v-1.5L353.3,375.5z"/>
	<path class="st24" d="M341.8,369l2-1.1l1.4,0.8l-1.4-0.6L341.8,369z"/>
	<path class="st24" d="M346.2,370.4c0.4-0.2,0.8-0.4,1.2-0.4c0.4,0,0.9,0,1.3,0.2l1.7-1.7l-1.7,1.5c-0.4-0.1-0.9-0.2-1.3-0.1
		C347,370,346.5,370.2,346.2,370.4z"/>
	<path class="st24" d="M347.8,375.7c0.3,0.1,0.7,0.2,1,0.3c0.6,0.1,1.2,0.2,1.8,0.1c-0.9,0-1.7-0.2-2.5-0.5l1.5-1.7L347.8,375.7z"/>
	<path class="st24" d="M353.3,375.5l1.4,0.6l1.9-0.9l-1.9,1.1L353.3,375.5z"/>
	<path class="st24" d="M336.3,365.9c5.1-3.1,13-3.4,13-3.4c-4.6-0.1-9.1,1-13.1,3.1c-3.4,1.9-5.2,4.4-5.2,7.1
		C331,372.7,331.1,369,336.3,365.9z"/>
	<path class="st24" d="M347.8,383.8c5.4,0.2,10.9-0.8,15-3.2c4.3-2.5,6.1-5.8,5.5-9c0,0,0.8,5.2-5.8,8.8S347.8,383.8,347.8,383.8z"
		/>
	<path class="st7" d="M365.5,367.4c-1.1-1.8-2.7-3.2-4.6-4.2c-7.5-4.3-19.6-4.3-27.1,0c-1.9,1-3.4,2.5-4.6,4.2h-1v3.9
		c0.1,2.7,2,5.4,5.6,7.5c7.5,4.3,19.6,4.3,27.1,0c3.6-2.1,5.5-4.8,5.6-7.5v-3.9H365.5z"/>
	<g class="st18">
		<path d="M365.5,367.4c-1.1-1.8-2.7-3.2-4.6-4.2c-7.5-4.3-19.6-4.3-27.1,0c-1.9,1-3.4,2.5-4.6,4.2h-1v3.9c0.1,2.7,2,5.4,5.6,7.5
			c7.5,4.3,19.6,4.3,27.1,0c3.6-2.1,5.5-4.8,5.6-7.5v-3.9H365.5z"/>
	</g>
	<path class="st17" d="M347.4,359.9c-4.7-0.1-9.4,1-13.5,3.2c-1.9,1-3.4,2.4-4.6,4.2h-1v3.9c0.1,2.7,2,5.4,5.6,7.5
		c4.2,2.2,8.8,3.3,13.5,3.2V359.9z"/>
	<path class="st17" d="M336.9,361.7c-1.1,0.4-2.1,0.9-3.1,1.5c-1.9,1-3.4,2.5-4.6,4.2h-1v3.9c0.1,2.7,2,5.4,5.6,7.5
		c1,0.6,2,1,3.1,1.5V361.7z"/>
	<path class="st19" d="M357.9,361.7c1.1,0.4,2.1,0.9,3.1,1.5c1.9,1,3.4,2.4,4.6,4.2h1v3.9c-0.1,2.7-2,5.4-5.6,7.5
		c-1,0.6-2,1-3.1,1.5V361.7z"/>
	<path class="st7" d="M360.9,359.5c-7.5-4.3-19.6-4.3-27.1,0s-7.5,11.3,0,15.6c7.5,4.3,19.6,4.3,27.1,0
		C368.4,370.9,368.4,363.9,360.9,359.5z"/>
	<path class="st12" d="M360.9,359.5c-7.5-4.3-19.6-4.3-27.1,0s-7.5,11.3,0,15.6c7.5,4.3,19.6,4.3,27.1,0
		C368.4,370.9,368.4,363.9,360.9,359.5z"/>
	<path class="st7" d="M356.2,362.4c-2.8-1.2-5.8-1.9-8.8-1.9s-6,0.6-8.8,1.9c-2.5,1.3-3.9,3-3.9,5s1.4,3.7,3.9,4.9
		c2.8,1.2,5.8,1.9,8.8,1.9s6-0.6,8.8-1.9c2.5-1.3,3.9-3,3.9-4.9S358.7,363.7,356.2,362.4z"/>
	<path class="st20" d="M356.2,362.4c-2.8-1.2-5.8-1.9-8.8-1.9s-6,0.6-8.8,1.9c-2.5,1.3-3.9,3-3.9,5s1.4,3.7,3.9,4.9
		c2.8,1.2,5.8,1.9,8.8,1.9s6-0.6,8.8-1.9c2.5-1.3,3.9-3,3.9-4.9S358.7,363.7,356.2,362.4z"/>
	<path class="st7" d="M360.5,360.3c-4.1-2.1-8.6-3.1-13.1-3.1c-4.6,0-9.1,1.1-13.1,3.1c-3.3,1.9-5.2,4.5-5.2,7.1s1.8,5.2,5.2,7.1
		c4.1,2.1,8.6,3.1,13.1,3.1c4.6,0,9.1-1.1,13.1-3.1c3.3-1.9,5.2-4.5,5.2-7.1C365.7,364.7,363.9,362.2,360.5,360.3z M356.2,372.3
		c-2.8,1.2-5.8,1.9-8.8,1.9s-6-0.6-8.8-1.9c-2.5-1.3-3.9-3-3.9-5c0-1.9,1.4-3.7,3.9-5c2.8-1.2,5.8-1.9,8.8-1.9s6,0.6,8.8,1.9
		c2.5,1.3,3.9,3,3.9,5S358.7,371,356.2,372.3z"/>
	<path class="st16" d="M360.5,360.3c-4.1-2.1-8.6-3.1-13.1-3.1c-4.6,0-9.1,1.1-13.1,3.1c-3.3,1.9-5.2,4.5-5.2,7.1s1.8,5.2,5.2,7.1
		c4.1,2.1,8.6,3.1,13.1,3.1c4.6,0,9.1-1.1,13.1-3.1c3.3-1.9,5.2-4.5,5.2-7.1C365.7,364.7,363.9,362.2,360.5,360.3z M356.2,372.3
		c-2.8,1.2-5.8,1.9-8.8,1.9s-6-0.6-8.8-1.9c-2.5-1.3-3.9-3-3.9-5c0-1.9,1.4-3.7,3.9-5c2.8-1.2,5.8-1.9,8.8-1.9s6,0.6,8.8,1.9
		c2.5,1.3,3.9,3,3.9,5S358.7,371,356.2,372.3z"/>
	<path class="st12" d="M347.4,373.5c6.6,0,12-2.8,12-6.2s-5.4-6.2-12-6.2s-12,2.8-12,6.2S340.7,373.5,347.4,373.5z"/>
	<path class="st7" d="M347.4,373.5c6.6,0,12-2.8,12-6.2s-5.4-6.2-12-6.2s-12,2.8-12,6.2S340.7,373.5,347.4,373.5z"/>
	<path class="st21" d="M347.4,373.5c6.6,0,12-2.8,12-6.2s-5.4-6.2-12-6.2s-12,2.8-12,6.2S340.7,373.5,347.4,373.5z"/>
	<path class="st7" d="M355.9,364.6c-4.7-2.4-12.3-2.4-17,0c-2,1-3.1,2.2-3.4,3.5c0.3,1.3,1.5,2.5,3.4,3.5c4.7,2.4,12.3,2.4,17,0
		c1.9-1,3.1-2.2,3.4-3.5c-0.3-0.8-0.7-1.5-1.3-2.1C357.4,365.4,356.7,365,355.9,364.6z"/>
	<path class="st22" d="M355.9,364.6c-4.7-2.4-12.3-2.4-17,0c-2,1-3.1,2.2-3.4,3.5c0.3,1.3,1.5,2.5,3.4,3.5c4.7,2.4,12.3,2.4,17,0
		c1.9-1,3.1-2.2,3.4-3.5c-0.3-0.8-0.7-1.5-1.3-2.1C357.4,365.4,356.7,365,355.9,364.6z"/>
	<path class="st7" d="M348.5,363.1v1.8l-0.6,0.6l-1.1,1.2v-1.8L348.5,363.1z"/>
	<path class="st22" d="M348.5,363.1v1.8l-0.6,0.6l-1.1,1.2v-1.8L348.5,363.1z"/>
	<path class="st7" d="M346.8,364.8v1c-0.6,0.2-1.1,0.4-1.7,0.5c-0.2,0.1-0.5,0.1-0.7,0c-0.1,0-0.2-0.1-0.4-0.1
		c-0.4-0.2-0.5-0.6,0.3-1.1c0.4-0.2,0.8-0.4,1.2-0.4C346,364.6,346.4,364.7,346.8,364.8z"/>
	<path class="st21" d="M346.8,364.8v1c-0.6,0.2-1.1,0.4-1.7,0.5c-0.2,0.1-0.5,0.1-0.7,0c-0.1,0-0.2-0.1-0.4-0.1
		c-0.4-0.2-0.5-0.6,0.3-1.1c0.4-0.2,0.8-0.4,1.2-0.4C346,364.6,346.4,364.7,346.8,364.8z"/>
	<path class="st7" d="M354.8,369.8v1.5l-1.9,1.1l-1.4-0.8c-1.7,0.8-3.7,0.9-5.5,0.2v-1.5l0.9-0.9l-0.9,0.2c-0.7,0.2-1.5,0.3-2.2,0.2
		s-1.5-0.3-2.1-0.7c-0.9-0.5-1.3-1-1.3-1.6V366l0.2-0.6l-0.5-0.3v-1.5l1.4,0.8c-0.3,0.2-0.5,0.4-0.7,0.7c-0.2,0.3-0.3,0.6-0.3,0.9
		c0,0.5,0.4,1.1,1.3,1.6c0.8,0.4,1.8,0.7,2.7,0.7c0.9,0,1.9-0.1,2.7-0.5c1.6-0.5,2.7-1.1,3.7-0.6c0.6,0.3,0.4,0.7-0.2,1.1
		c-0.4,0.2-0.9,0.4-1.3,0.4c-0.5,0-0.9-0.1-1.4-0.2l-1.8,1.8c0.3,0.1,0.7,0.2,1,0.3c1.5,0.3,3.1,0.1,4.5-0.5l1.4,0.8L354.8,369.8z"
		/>
	<path class="st12" d="M340.3,366.1c0,0.5,0.4,1.1,1.3,1.6c0.8,0.4,1.8,0.7,2.7,0.7c0.9,0,1.9-0.1,2.7-0.5c1.6-0.5,2.7-1.1,3.7-0.6
		c0.6,0.3,0.4,0.7-0.2,1.1c-0.4,0.2-0.9,0.4-1.3,0.4c-0.5,0-0.9-0.1-1.4-0.2l-1.8,1.8c0.3,0.1,0.7,0.2,1,0.3
		c1.5,0.3,3.1,0.1,4.5-0.5l1.4,0.8l1.9-1.1v1.5l-1.9,1.1l-1.4-0.8c-1.7,0.8-3.7,0.9-5.5,0.2v-1.5l0.9-0.9l-0.9,0.2
		c-0.7,0.2-1.5,0.3-2.2,0.2c-0.7-0.1-1.5-0.3-2.1-0.7c-0.9-0.5-1.3-1-1.3-1.6L340.3,366.1l0.1-0.7"/>
	<path class="st21" d="M340,363.7v1.5l0.5,0.3c0.2-0.4,0.5-0.7,0.9-1L340,363.7z"/>
	<path class="st7" d="M354.5,368.8c0,0.3,0,0.5-0.1,0.7l-1-0.6c0.3-0.1,0.5-0.3,0.7-0.6c0.2-0.3,0.3-0.6,0.4-0.9
		C354.5,368,354.5,368.8,354.5,368.8z"/>
	<g class="st23">
		<path d="M354.5,368.8c0,0.3,0,0.5-0.1,0.7l-1-0.6c0.3-0.1,0.5-0.3,0.7-0.6c0.2-0.3,0.3-0.6,0.4-0.9
			C354.5,368,354.5,368.8,354.5,368.8z"/>
	</g>
	<path class="st7" d="M354.5,369.6l-1.1-0.6c0.3-0.1,0.6-0.4,0.8-0.7c0.2-0.3,0.3-0.6,0.3-1c0-0.1,0-0.1,0-0.1
		c-0.1-0.3-0.2-0.6-0.4-0.9c-0.2-0.3-0.5-0.5-0.8-0.6c-0.8-0.5-1.7-0.7-2.6-0.7h-0.2h-0.2H350h-0.2c-0.4,0.1-0.8,0.2-1.2,0.3
		l-0.6,0.2l-0.8,0.3l-0.3,0.1c-0.6,0.2-1.1,0.4-1.7,0.5c-0.2,0.1-0.5,0.1-0.7,0c-0.1,0-0.2-0.1-0.3-0.1c-0.4-0.2-0.5-0.6,0.3-1.1
		c0.4-0.2,0.8-0.4,1.2-0.4c0.4,0,0.9,0,1.3,0.2l1.7-1.7c-1.7-0.5-3.5-0.4-5.2,0.3l-1.4-0.8l-1.9,1.1l1.4,0.8
		c-0.3,0.2-0.5,0.4-0.7,0.7c-0.2,0.3-0.3,0.6-0.3,0.9c0,0.6,0.4,1.1,1.3,1.6c0.8,0.4,1.8,0.7,2.7,0.7c0.9,0,1.9-0.1,2.7-0.5
		c1.6-0.5,2.7-1.1,3.7-0.6c0.6,0.3,0.4,0.7-0.2,1.1c-0.4,0.2-0.9,0.4-1.3,0.4c-0.5,0-0.9-0.1-1.4-0.2l-1.8,1.8
		c0.3,0.1,0.7,0.2,1,0.3c0.6,0.1,1.2,0.2,1.8,0.1c1-0.1,1.9-0.3,2.8-0.7l1.4,0.8l1.9-1.1L354.5,369.6z"/>
	<g class="st23">
		<path class="st5" d="M354.5,369.6l-1.1-0.6c0.3-0.1,0.6-0.4,0.8-0.7c0.2-0.3,0.3-0.6,0.3-1c0-0.1,0-0.1,0-0.1
			c-0.1-0.3-0.2-0.6-0.4-0.9c-0.2-0.3-0.5-0.5-0.8-0.6c-0.8-0.5-1.7-0.7-2.6-0.7h-0.2h-0.2H350h-0.2c-0.4,0.1-0.8,0.2-1.2,0.3
			l-0.6,0.2l-0.8,0.3l-0.3,0.1c-0.6,0.2-1.1,0.4-1.7,0.5c-0.2,0.1-0.5,0.1-0.7,0c-0.1,0-0.2-0.1-0.3-0.1c-0.4-0.2-0.5-0.6,0.3-1.1
			c0.4-0.2,0.8-0.4,1.2-0.4c0.4,0,0.9,0,1.3,0.2l1.7-1.7c-1.7-0.5-3.5-0.4-5.2,0.3l-1.4-0.8l-1.9,1.1l1.4,0.8
			c-0.3,0.2-0.5,0.4-0.7,0.7c-0.2,0.3-0.3,0.6-0.3,0.9c0,0.6,0.4,1.1,1.3,1.6c0.8,0.4,1.8,0.7,2.7,0.7c0.9,0,1.9-0.1,2.7-0.5
			c1.6-0.5,2.7-1.1,3.7-0.6c0.6,0.3,0.4,0.7-0.2,1.1c-0.4,0.2-0.9,0.4-1.3,0.4c-0.5,0-0.9-0.1-1.4-0.2l-1.8,1.8
			c0.3,0.1,0.7,0.2,1,0.3c0.6,0.1,1.2,0.2,1.8,0.1c1-0.1,1.9-0.3,2.8-0.7l1.4,0.8l1.9-1.1L354.5,369.6z"/>
	</g>
	<path class="st7" d="M351.5,370.1v1.5l1.4,0.8V371L351.5,370.1z"/>
	<path class="st21" d="M351.5,370.1v1.5l1.4,0.8V371L351.5,370.1z"/>
	<path class="st24" d="M340,363.7l2-1.1l1.4,0.8l-1.4-0.6L340,363.7z"/>
	<path class="st24" d="M344.3,365.1c0.4-0.2,0.8-0.4,1.2-0.4c0.4,0,0.9,0,1.3,0.2l1.7-1.7l-1.7,1.6c-0.4-0.1-0.9-0.2-1.3-0.1
		C345.1,364.6,344.7,364.8,344.3,365.1z"/>
	<path class="st24" d="M345.9,370.4c0.3,0.1,0.7,0.2,1,0.3c0.6,0.1,1.2,0.2,1.8,0.1c-0.9,0-1.7-0.2-2.5-0.5l1.5-1.7L345.9,370.4z"/>
	<path class="st24" d="M351.5,370.1l1.4,0.6l1.9-0.9l-1.9,1.1L351.5,370.1z"/>
	<path class="st24" d="M334.4,360.5c5.1-3.1,13-3.4,13-3.4c-4.6-0.1-9.1,1-13.1,3.1c-3.3,1.9-5.2,4.5-5.2,7.1
		C329.1,367.4,329.3,363.7,334.4,360.5z"/>
	<path class="st24" d="M345.9,378.4c5.2,0.3,10.4-0.8,15-3.2c4.3-2.5,6.1-5.8,5.5-9c0,0,0.8,5.3-5.8,8.8
		C354,378.6,345.9,378.4,345.9,378.4z"/>
	<path class="st7" d="M398.9,394c-1.1-1.8-2.7-3.2-4.6-4.2c-7.5-4.3-19.6-4.3-27.1,0c-1.9,1-3.4,2.5-4.6,4.2h-1v4
		c0.1,2.7,2,5.4,5.6,7.5c7.5,4.3,19.6,4.3,27.1,0c3.6-2.1,5.5-4.8,5.6-7.5v-4H398.9z"/>
	<g class="st18">
		<path d="M398.9,394c-1.1-1.8-2.7-3.2-4.6-4.2c-7.5-4.3-19.6-4.3-27.1,0c-1.9,1-3.4,2.5-4.6,4.2h-1v4c0.1,2.7,2,5.4,5.6,7.5
			c7.5,4.3,19.6,4.3,27.1,0c3.6-2.1,5.5-4.8,5.6-7.5v-4H398.9z"/>
	</g>
	<path class="st17" d="M380.8,386.6c-4.7-0.1-9.4,1-13.5,3.2c-1.9,1-3.4,2.5-4.6,4.2h-1v4c0.1,2.7,2,5.4,5.6,7.5
		c4.2,2.2,8.8,3.3,13.5,3.2V386.6z"/>
	<path class="st17" d="M370.3,388.4c-1.1,0.4-2.1,0.9-3.1,1.4c-1.9,1-3.4,2.5-4.6,4.2h-1v4c0.1,2.7,2,5.4,5.6,7.5c1,0.6,2,1,3.1,1.4
		V388.4z"/>
	<path class="st19" d="M391.2,388.4c1.1,0.4,2.1,0.9,3.1,1.4c1.9,1,3.4,2.5,4.6,4.2h1v4c-0.1,2.7-2,5.4-5.6,7.5c-1,0.6-2,1-3.1,1.4
		V388.4z"/>
	<path class="st7" d="M394.3,386.2c-7.5-4.3-19.6-4.3-27.1,0s-7.5,11.3,0,15.6s19.6,4.3,27.1,0C401.8,397.5,401.8,390.5,394.3,386.2
		z"/>
	<path class="st12" d="M394.3,386.2c-7.5-4.3-19.6-4.3-27.1,0s-7.5,11.3,0,15.6s19.6,4.3,27.1,0
		C401.8,397.5,401.8,390.5,394.3,386.2z"/>
	<path class="st7" d="M389.6,389.1c-2.8-1.2-5.8-1.9-8.8-1.9s-6,0.6-8.8,1.9c-2.5,1.3-3.9,3.1-3.9,5c0,2,1.4,3.7,3.9,5
		c2.8,1.2,5.8,1.9,8.8,1.9s6-0.6,8.8-1.9c2.5-1.3,3.9-3,3.9-5S392.1,390.4,389.6,389.1z"/>
	<path class="st20" d="M389.6,389.1c-2.8-1.2-5.8-1.9-8.8-1.9s-6,0.6-8.8,1.9c-2.5,1.3-3.9,3.1-3.9,5c0,2,1.4,3.7,3.9,5
		c2.8,1.2,5.8,1.9,8.8,1.9s6-0.6,8.8-1.9c2.5-1.3,3.9-3,3.9-5S392.1,390.4,389.6,389.1z"/>
	<path class="st7" d="M393.9,386.9c-4.1-2.1-8.6-3.1-13.1-3.1c-4.6,0-9.1,1.1-13.1,3.1c-3.4,1.9-5.2,4.5-5.2,7.1s1.8,5.2,5.2,7.1
		c4.1,2.1,8.6,3.1,13.1,3.1c4.6,0,9.1-1.1,13.1-3.1c3.3-1.9,5.2-4.5,5.2-7.1S397.2,388.9,393.9,386.9z M389.6,399
		c-2.8,1.2-5.8,1.9-8.8,1.9s-6-0.6-8.8-1.9c-2.5-1.3-3.9-3-3.9-5c0-1.9,1.4-3.7,3.9-5c2.8-1.2,5.8-1.9,8.8-1.9s6,0.6,8.8,1.9
		c2.5,1.3,3.9,3.1,3.9,5C393.5,396,392.1,397.7,389.6,399z"/>
	<path class="st16" d="M393.9,386.9c-4.1-2.1-8.6-3.1-13.1-3.1c-4.6,0-9.1,1.1-13.1,3.1c-3.4,1.9-5.2,4.5-5.2,7.1s1.8,5.2,5.2,7.1
		c4.1,2.1,8.6,3.1,13.1,3.1c4.6,0,9.1-1.1,13.1-3.1c3.3-1.9,5.2-4.5,5.2-7.1S397.2,388.9,393.9,386.9z M389.6,399
		c-2.8,1.2-5.8,1.9-8.8,1.9s-6-0.6-8.8-1.9c-2.5-1.3-3.9-3-3.9-5c0-1.9,1.4-3.7,3.9-5c2.8-1.2,5.8-1.9,8.8-1.9s6,0.6,8.8,1.9
		c2.5,1.3,3.9,3.1,3.9,5C393.5,396,392.1,397.7,389.6,399z"/>
	<path class="st12" d="M389.3,398.4c4.7-2.4,4.7-6.3,0-8.8c-4.7-2.4-12.3-2.4-17,0s-4.7,6.3,0,8.8
		C377,400.8,384.6,400.8,389.3,398.4z"/>
	<path class="st7" d="M389.3,398.4c4.7-2.4,4.7-6.3,0-8.8c-4.7-2.4-12.3-2.4-17,0s-4.7,6.3,0,8.8C377,400.8,384.6,400.8,389.3,398.4
		z"/>
	<path class="st21" d="M389.3,398.4c4.7-2.4,4.7-6.3,0-8.8c-4.7-2.4-12.3-2.4-17,0s-4.7,6.3,0,8.8
		C377,400.8,384.6,400.8,389.3,398.4z"/>
	<path class="st7" d="M389.3,391.3c-4.7-2.4-12.3-2.4-17,0c-2,1-3.1,2.3-3.4,3.6c0.3,1.3,1.5,2.6,3.4,3.6c4.7,2.4,12.3,2.4,17,0
		c1.9-1,3.1-2.3,3.4-3.6C392.4,393.6,391.2,392.3,389.3,391.3z"/>
	<path class="st22" d="M389.3,391.3c-4.7-2.4-12.3-2.4-17,0c-2,1-3.1,2.3-3.4,3.6c0.3,1.3,1.5,2.6,3.4,3.6c4.7,2.4,12.3,2.4,17,0
		c1.9-1,3.1-2.3,3.4-3.6C392.4,393.6,391.2,392.3,389.3,391.3z"/>
	<path class="st7" d="M381.9,389.8v1.8l-0.6,0.6l-1.1,1.2v-1.8L381.9,389.8z"/>
	<path class="st22" d="M381.9,389.8v1.8l-0.6,0.6l-1.1,1.2v-1.8L381.9,389.8z"/>
	<path class="st7" d="M380.2,391.5v1c-0.6,0.2-1.1,0.4-1.7,0.5c-0.2,0-0.5,0-0.7,0c-0.1,0-0.2-0.1-0.3-0.1c-0.4-0.3-0.5-0.6,0.3-1.1
		c0.4-0.2,0.8-0.4,1.2-0.4C379.3,391.3,379.8,391.3,380.2,391.5z"/>
	<path class="st21" d="M380.2,391.5v1c-0.6,0.2-1.1,0.4-1.7,0.5c-0.2,0-0.5,0-0.7,0c-0.1,0-0.2-0.1-0.3-0.1
		c-0.4-0.3-0.5-0.6,0.3-1.1c0.4-0.2,0.8-0.4,1.2-0.4C379.3,391.3,379.8,391.3,380.2,391.5z"/>
	<path class="st7" d="M388.2,396.5v1.5l-1.9,1.1l-1.4-0.8c-1.7,0.8-3.7,0.9-5.5,0.2V397l0.9-0.9l-0.9,0.2c-0.7,0.2-1.5,0.3-2.2,0.2
		c-0.7-0.1-1.5-0.3-2.1-0.7c-0.9-0.5-1.3-1.1-1.3-1.6v-1.5l0.2-0.6l-0.5-0.3v-1.5l1.4,0.8c-0.3,0.2-0.5,0.4-0.7,0.7
		s-0.3,0.6-0.3,0.9c0,0.6,0.4,1.1,1.3,1.6c0.8,0.4,1.8,0.7,2.7,0.7s1.9-0.1,2.7-0.5c1.6-0.5,2.7-1.1,3.7-0.6
		c0.6,0.3,0.4,0.7-0.2,1.1c-0.4,0.2-0.9,0.4-1.3,0.4c-0.5,0-0.9-0.1-1.4-0.2l-1.8,1.8c0.3,0.1,0.7,0.2,1,0.3
		c1.5,0.3,3.1,0.1,4.5-0.5l1.4,0.8L388.2,396.5z"/>
	<path class="st12" d="M373.7,392.8c0,0.5,0.4,1.1,1.3,1.6c0.8,0.4,1.8,0.7,2.7,0.7c0.9,0,1.9-0.1,2.7-0.5c1.6-0.5,2.7-1.1,3.7-0.6
		c0.6,0.3,0.4,0.7-0.2,1.1c-0.4,0.2-0.9,0.4-1.3,0.4c-0.5,0-0.9-0.1-1.4-0.2l-1.8,1.8c0.3,0.1,0.7,0.2,1,0.3
		c1.5,0.3,3.1,0.1,4.5-0.5l1.4,0.8l1.9-1.1v1.5l-1.9,1.1l-1.4-0.8c-1.7,0.8-3.7,0.9-5.5,0.2V397l0.9-0.9l-0.9,0.2
		c-0.7,0.2-1.5,0.3-2.2,0.2c-0.7-0.1-1.5-0.3-2.1-0.7c-0.9-0.5-1.3-1.1-1.3-1.6L373.7,392.8l0.1-0.7"/>
	<path class="st21" d="M373.3,390.4v1.5l0.5,0.3c0.2-0.4,0.5-0.7,0.9-1L373.3,390.4z"/>
	<path class="st7" d="M387.9,395.5c0,0.3,0,0.5-0.1,0.7l-1-0.6c0.3-0.1,0.5-0.3,0.7-0.6c0.2-0.3,0.3-0.6,0.4-0.9
		C387.9,394.6,387.9,395.5,387.9,395.5z"/>
	<g class="st23">
		<path d="M387.9,395.5c0,0.3,0,0.5-0.1,0.7l-1-0.6c0.3-0.1,0.5-0.3,0.7-0.6c0.2-0.3,0.3-0.6,0.4-0.9
			C387.9,394.6,387.9,395.5,387.9,395.5z"/>
	</g>
	<path class="st7" d="M387.9,396.3l-1.1-0.6c0.3-0.1,0.6-0.4,0.8-0.7c0.2-0.3,0.3-0.7,0.3-1c0-0.1,0-0.1,0-0.1
		c-0.1-0.3-0.2-0.6-0.4-0.9c-0.2-0.3-0.5-0.5-0.8-0.6c-0.8-0.4-1.7-0.7-2.6-0.7h-0.5h-0.2h-0.1h-0.1c-0.4,0.1-0.8,0.1-1.2,0.3
		l-0.6,0.2l-0.8,0.3l-0.3,0.1c-0.6,0.2-1.1,0.4-1.7,0.5c-0.2,0.1-0.5,0.1-0.7,0c-0.1,0-0.2-0.1-0.3-0.1c-0.4-0.2-0.5-0.6,0.3-1.1
		c0.4-0.2,0.8-0.4,1.2-0.4c0.4,0,0.9,0,1.3,0.2l1.7-1.7c-1.7-0.5-3.5-0.4-5.2,0.3l-1.4-0.8l-1.9,1.1l1.4,0.8
		c-0.3,0.2-0.5,0.4-0.7,0.7c-0.2,0.3-0.3,0.6-0.3,0.9c0,0.5,0.4,1.1,1.3,1.6c0.8,0.4,1.8,0.7,2.7,0.7c0.9,0,1.9-0.1,2.7-0.5
		c1.6-0.5,2.7-1.1,3.6-0.6c0.6,0.3,0.4,0.7-0.2,1.1c-0.4,0.2-0.9,0.4-1.3,0.4c-0.5,0-0.9-0.1-1.4-0.2l-1.8,1.8
		c0.9,0.3,1.8,0.5,2.8,0.4s1.9-0.3,2.8-0.7l1.4,0.8l1.9-1.1L387.9,396.3z"/>
	<g class="st23">
		<path class="st5" d="M387.9,396.3l-1.1-0.6c0.3-0.1,0.6-0.4,0.8-0.7c0.2-0.3,0.3-0.7,0.3-1c0-0.1,0-0.1,0-0.1
			c-0.1-0.3-0.2-0.6-0.4-0.9c-0.2-0.3-0.5-0.5-0.8-0.6c-0.8-0.4-1.7-0.7-2.6-0.7h-0.5h-0.2h-0.1h-0.1c-0.4,0.1-0.8,0.1-1.2,0.3
			l-0.6,0.2l-0.8,0.3l-0.3,0.1c-0.6,0.2-1.1,0.4-1.7,0.5c-0.2,0.1-0.5,0.1-0.7,0c-0.1,0-0.2-0.1-0.3-0.1c-0.4-0.2-0.5-0.6,0.3-1.1
			c0.4-0.2,0.8-0.4,1.2-0.4c0.4,0,0.9,0,1.3,0.2l1.7-1.7c-1.7-0.5-3.5-0.4-5.2,0.3l-1.4-0.8l-1.9,1.1l1.4,0.8
			c-0.3,0.2-0.5,0.4-0.7,0.7c-0.2,0.3-0.3,0.6-0.3,0.9c0,0.5,0.4,1.1,1.3,1.6c0.8,0.4,1.8,0.7,2.7,0.7c0.9,0,1.9-0.1,2.7-0.5
			c1.6-0.5,2.7-1.1,3.6-0.6c0.6,0.3,0.4,0.7-0.2,1.1c-0.4,0.2-0.9,0.4-1.3,0.4c-0.5,0-0.9-0.1-1.4-0.2l-1.8,1.8
			c0.9,0.3,1.8,0.5,2.8,0.4s1.9-0.3,2.8-0.7l1.4,0.8l1.9-1.1L387.9,396.3z"/>
	</g>
	<path class="st7" d="M384.8,396.8v1.5l1.4,0.8v-1.5L384.8,396.8z"/>
	<path class="st21" d="M384.8,396.8v1.5l1.4,0.8v-1.5L384.8,396.8z"/>
	<path class="st24" d="M373.3,390.4l2-1.1l1.4,0.8l-1.4-0.6L373.3,390.4z"/>
	<path class="st24" d="M377.7,391.8c0.4-0.2,0.8-0.4,1.2-0.4c0.4,0,0.9,0,1.3,0.2l1.7-1.7l-1.7,1.5c-0.4-0.1-0.9-0.2-1.3-0.1
		S378,391.5,377.7,391.8z"/>
	<path class="st24" d="M379.3,397c0.9,0.3,1.8,0.5,2.8,0.4c-0.9,0-1.7-0.2-2.5-0.5l1.5-1.7L379.3,397z"/>
	<path class="st24" d="M384.8,396.8l1.4,0.6l1.9-0.9l-1.9,1.1L384.8,396.8z"/>
	<path class="st24" d="M367.8,387.2c5.1-3.1,13-3.4,13-3.4c-4.6-0.1-9.1,1-13.1,3.1c-3.4,1.9-5.2,4.5-5.2,7.1
		C362.5,394,362.6,390.3,367.8,387.2z"/>
	<path class="st24" d="M379.3,405.1c5.4,0.2,10.9-0.8,15-3.2c4.3-2.5,6.1-5.8,5.5-9c0,0,0.8,5.2-5.8,8.9
		C387.4,405.3,379.3,405.1,379.3,405.1z"/>
	<path class="st7" d="M400.9,388.4c-1.1-1.8-2.7-3.2-4.6-4.2c-7.5-4.3-19.6-4.3-27.1,0c-1.9,1-3.4,2.5-4.6,4.2h-1v3.9
		c0.1,2.7,2,5.4,5.6,7.5c7.5,4.3,19.6,4.3,27.1,0c3.6-2.1,5.5-4.8,5.6-7.5v-3.9H400.9z"/>
	<g class="st18">
		<path d="M400.9,388.4c-1.1-1.8-2.7-3.2-4.6-4.2c-7.5-4.3-19.6-4.3-27.1,0c-1.9,1-3.4,2.5-4.6,4.2h-1v3.9c0.1,2.7,2,5.4,5.6,7.5
			c7.5,4.3,19.6,4.3,27.1,0c3.6-2.1,5.5-4.8,5.6-7.5v-3.9H400.9z"/>
	</g>
	<path class="st17" d="M382.8,380.9c-4.7-0.1-9.4,1-13.5,3.2c-1.9,1-3.4,2.5-4.6,4.2h-1v3.9c0.1,2.7,2,5.4,5.6,7.5
		c4.2,2.2,8.8,3.3,13.5,3.2V380.9z"/>
	<path class="st17" d="M372.3,382.7c-1.1,0.4-2.1,0.9-3.1,1.4c-1.9,1-3.4,2.5-4.6,4.2h-1v3.9c0.1,2.7,2,5.4,5.6,7.5
		c1,0.6,2,1.1,3.1,1.4V382.7z"/>
	<path class="st19" d="M393.2,382.7c1.1,0.4,2.1,0.9,3.1,1.4c1.9,1,3.4,2.5,4.6,4.2h1v3.9c-0.1,2.7-2,5.4-5.6,7.5
		c-1,0.6-2,1.1-3.1,1.4V382.7z"/>
	<path class="st7" d="M396.3,380.5c-7.5-4.3-19.6-4.3-27.1,0s-7.5,11.3,0,15.6s19.6,4.3,27.1,0S403.8,384.9,396.3,380.5z"/>
	<path class="st12" d="M396.3,380.5c-7.5-4.3-19.6-4.3-27.1,0s-7.5,11.3,0,15.6s19.6,4.3,27.1,0S403.8,384.9,396.3,380.5z"/>
	<path class="st7" d="M391.6,383.4c-2.8-1.2-5.8-1.9-8.8-1.9s-6,0.6-8.8,1.9c-2.5,1.3-3.9,3-3.9,4.9c0,2,1.4,3.7,3.9,5
		c2.8,1.2,5.8,1.9,8.8,1.9s6-0.6,8.8-1.9c2.5-1.3,3.9-3,3.9-5C395.5,386.4,394.1,384.7,391.6,383.4z"/>
	<path class="st20" d="M391.6,383.4c-2.8-1.2-5.8-1.9-8.8-1.9s-6,0.6-8.8,1.9c-2.5,1.3-3.9,3-3.9,4.9c0,2,1.4,3.7,3.9,5
		c2.8,1.2,5.8,1.9,8.8,1.9s6-0.6,8.8-1.9c2.5-1.3,3.9-3,3.9-5C395.5,386.4,394.1,384.7,391.6,383.4z"/>
	<path class="st7" d="M395.9,381.3c-4.1-2.1-8.6-3.1-13.1-3.1c-4.6,0-9.1,1.1-13.1,3.1c-3.4,1.9-5.2,4.5-5.2,7.1s1.8,5.2,5.2,7.1
		c4.1,2.1,8.6,3.1,13.1,3.1c4.6,0,9.1-1.1,13.1-3.1c3.3-1.9,5.2-4.5,5.2-7.1C401.1,385.7,399.3,383.2,395.9,381.3z M391.6,393.3
		c-2.8,1.2-5.8,1.9-8.8,1.9s-6-0.6-8.8-1.9c-2.5-1.3-3.9-3.1-3.9-5c0-2,1.4-3.7,3.9-5c2.8-1.2,5.8-1.9,8.8-1.9s6,0.6,8.8,1.9
		c2.5,1.3,3.9,3,3.9,5S394.1,392,391.6,393.3z"/>
	<path class="st16" d="M395.9,381.3c-4.1-2.1-8.6-3.1-13.1-3.1c-4.6,0-9.1,1.1-13.1,3.1c-3.4,1.9-5.2,4.5-5.2,7.1s1.8,5.2,5.2,7.1
		c4.1,2.1,8.6,3.1,13.1,3.1c4.6,0,9.1-1.1,13.1-3.1c3.3-1.9,5.2-4.5,5.2-7.1C401.1,385.7,399.3,383.2,395.9,381.3z M391.6,393.3
		c-2.8,1.2-5.8,1.9-8.8,1.9s-6-0.6-8.8-1.9c-2.5-1.3-3.9-3.1-3.9-5c0-2,1.4-3.7,3.9-5c2.8-1.2,5.8-1.9,8.8-1.9s6,0.6,8.8,1.9
		c2.5,1.3,3.9,3,3.9,5S394.1,392,391.6,393.3z"/>
	<path class="st12" d="M391.3,392.7c4.7-2.4,4.7-6.3,0-8.7s-12.3-2.4-17,0s-4.7,6.3,0,8.7S386.6,395.1,391.3,392.7z"/>
	<path class="st7" d="M391.3,392.7c4.7-2.4,4.7-6.3,0-8.7s-12.3-2.4-17,0s-4.7,6.3,0,8.7S386.6,395.1,391.3,392.7z"/>
	<path class="st21" d="M391.3,392.7c4.7-2.4,4.7-6.3,0-8.7s-12.3-2.4-17,0s-4.7,6.3,0,8.7S386.6,395.1,391.3,392.7z"/>
	<path class="st7" d="M391.3,385.6c-4.7-2.4-12.3-2.4-17,0c-2,1-3.1,2.2-3.4,3.5c0.3,1.3,1.5,2.6,3.4,3.6c4.7,2.4,12.3,2.4,17,0
		c2-1,3.1-2.2,3.4-3.6C394.4,387.9,393.3,386.6,391.3,385.6z"/>
	<path class="st22" d="M391.3,385.6c-4.7-2.4-12.3-2.4-17,0c-2,1-3.1,2.2-3.4,3.5c0.3,1.3,1.5,2.6,3.4,3.6c4.7,2.4,12.3,2.4,17,0
		c2-1,3.1-2.2,3.4-3.6C394.4,387.9,393.3,386.6,391.3,385.6z"/>
	<path class="st7" d="M383.9,384.1v1.8l-0.6,0.6l-1.1,1.2v-1.8L383.9,384.1z"/>
	<path class="st22" d="M383.9,384.1v1.8l-0.6,0.6l-1.1,1.2v-1.8L383.9,384.1z"/>
	<path class="st7" d="M382.2,385.8v1c-0.6,0.2-1.1,0.4-1.7,0.5c-0.4,0.1-0.8,0-1.1-0.2c-0.4-0.2-0.5-0.6,0.3-1.1
		c0.4-0.2,0.8-0.4,1.2-0.4C381.4,385.6,381.8,385.7,382.2,385.8z"/>
	<path class="st21" d="M382.2,385.8v1c-0.6,0.2-1.1,0.4-1.7,0.5c-0.4,0.1-0.8,0-1.1-0.2c-0.4-0.2-0.5-0.6,0.3-1.1
		c0.4-0.2,0.8-0.4,1.2-0.4C381.4,385.6,381.8,385.7,382.2,385.8z"/>
	<path class="st7" d="M390.2,390.8v1.5l-1.9,1.1l-1.4-0.8c-1.7,0.8-3.7,0.9-5.5,0.2v-1.5l0.9-0.9l-0.9,0.2c-0.7,0.2-1.5,0.3-2.2,0.2
		c-0.7-0.1-1.5-0.3-2.1-0.7c-0.9-0.5-1.3-1-1.3-1.6V387l0.2-0.6l-0.5-0.3v-1.5l1.4,0.8c-0.3,0.2-0.5,0.4-0.7,0.7
		c-0.2,0.3-0.3,0.6-0.3,0.9c0,0.5,0.4,1.1,1.3,1.6c1.9,1.1,3.7,0.7,5.4,0.2c1.7-0.6,2.7-1.1,3.6-0.6c0.6,0.3,0.4,0.7-0.2,1.1
		c-0.4,0.2-0.9,0.4-1.3,0.4c-0.5,0-0.9,0-1.4-0.2l-1.8,1.8c0.3,0.1,0.7,0.2,1,0.3c1.5,0.3,3.1,0.1,4.5-0.5l1.4,0.8L390.2,390.8z"/>
	<path class="st12" d="M375.7,387.1c0,0.5,0.4,1.1,1.3,1.6c1.9,1.1,3.7,0.7,5.4,0.2c1.7-0.6,2.7-1.1,3.6-0.6
		c0.6,0.3,0.4,0.7-0.2,1.1c-0.4,0.2-0.9,0.4-1.3,0.4c-0.5,0-0.9,0-1.4-0.2l-1.8,1.8c0.3,0.1,0.7,0.2,1,0.3c1.5,0.3,3.1,0.1,4.5-0.5
		l1.4,0.8l1.9-1.1v1.5l-1.9,1.1l-1.4-0.8c-1.7,0.8-3.7,0.9-5.5,0.2v-1.5l0.9-0.9l-0.9,0.2c-0.7,0.2-1.5,0.3-2.2,0.2
		c-0.7-0.1-1.5-0.3-2.1-0.7c-0.9-0.5-1.3-1-1.3-1.6V387.1l0.2-0.7"/>
	<path class="st21" d="M375.4,384.7v1.5l0.5,0.3c0.2-0.4,0.5-0.7,0.9-1L375.4,384.7z"/>
	<path class="st7" d="M389.9,389.8c0,0.3,0,0.5-0.1,0.7l-1-0.5c0.3-0.1,0.5-0.3,0.7-0.6c0.2-0.3,0.3-0.6,0.4-0.9
		C389.9,389,389.9,389.8,389.9,389.8z"/>
	<g class="st23">
		<path d="M389.9,389.8c0,0.3,0,0.5-0.1,0.7l-1-0.5c0.3-0.1,0.5-0.3,0.7-0.6c0.2-0.3,0.3-0.6,0.4-0.9
			C389.9,389,389.9,389.8,389.9,389.8z"/>
	</g>
	<path class="st7" d="M389.9,390.6l-1.1-0.6c0.3-0.1,0.6-0.4,0.8-0.7c0.2-0.3,0.3-0.6,0.3-1v-0.1c-0.1-0.3-0.2-0.6-0.4-0.9
		c-0.2-0.3-0.5-0.5-0.8-0.6c-0.8-0.5-1.7-0.7-2.6-0.7h-0.2h-0.2h-0.2h-0.1h-0.1c-0.4,0.1-0.8,0.1-1.2,0.3l-0.6,0.2l-0.8,0.3
		l-0.3,0.1c-0.6,0.2-1.1,0.4-1.7,0.5c-0.2,0.1-0.5,0.1-0.7,0c-0.1,0-0.2-0.1-0.4-0.1c-0.4-0.2-0.5-0.6,0.3-1.1
		c0.4-0.2,0.8-0.4,1.2-0.4c0.4,0,0.9,0,1.3,0.2l1.7-1.7c-1.7-0.5-3.6-0.4-5.2,0.3l-1.4-0.8l-1.9,1.1l1.4,0.8
		c-0.3,0.2-0.5,0.4-0.7,0.7c-0.2,0.3-0.3,0.6-0.3,0.9c0,0.6,0.4,1.1,1.3,1.6c1.9,1.1,3.7,0.7,5.5,0.2c1.7-0.5,2.7-1.1,3.6-0.6
		c0.6,0.3,0.4,0.7-0.2,1.1c-0.4,0.2-0.9,0.4-1.3,0.4c-0.5,0-0.9-0.1-1.4-0.2l-1.8,1.8c0.3,0.1,0.7,0.2,1,0.3
		c0.6,0.1,1.2,0.2,1.8,0.1c1-0.1,1.9-0.3,2.8-0.7l1.4,0.8l1.9-1.1L389.9,390.6z"/>
	<g class="st23">
		<path class="st5" d="M389.9,390.6l-1.1-0.6c0.3-0.1,0.6-0.4,0.8-0.7c0.2-0.3,0.3-0.6,0.3-1v-0.1c-0.1-0.3-0.2-0.6-0.4-0.9
			c-0.2-0.3-0.5-0.5-0.8-0.6c-0.8-0.5-1.7-0.7-2.6-0.7h-0.2h-0.2h-0.2h-0.1h-0.1c-0.4,0.1-0.8,0.1-1.2,0.3l-0.6,0.2l-0.8,0.3
			l-0.3,0.1c-0.6,0.2-1.1,0.4-1.7,0.5c-0.2,0.1-0.5,0.1-0.7,0c-0.1,0-0.2-0.1-0.4-0.1c-0.4-0.2-0.5-0.6,0.3-1.1
			c0.4-0.2,0.8-0.4,1.2-0.4c0.4,0,0.9,0,1.3,0.2l1.7-1.7c-1.7-0.5-3.6-0.4-5.2,0.3l-1.4-0.8l-1.9,1.1l1.4,0.8
			c-0.3,0.2-0.5,0.4-0.7,0.7c-0.2,0.3-0.3,0.6-0.3,0.9c0,0.6,0.4,1.1,1.3,1.6c1.9,1.1,3.7,0.7,5.5,0.2c1.7-0.5,2.7-1.1,3.6-0.6
			c0.6,0.3,0.4,0.7-0.2,1.1c-0.4,0.2-0.9,0.4-1.3,0.4c-0.5,0-0.9-0.1-1.4-0.2l-1.8,1.8c0.3,0.1,0.7,0.2,1,0.3
			c0.6,0.1,1.2,0.2,1.8,0.1c1-0.1,1.9-0.3,2.8-0.7l1.4,0.8l1.9-1.1L389.9,390.6z"/>
	</g>
	<path class="st7" d="M386.9,391.1v1.5l1.4,0.8v-1.5L386.9,391.1z"/>
	<path class="st21" d="M386.9,391.1v1.5l1.4,0.8v-1.5L386.9,391.1z"/>
	<path class="st24" d="M375.4,384.7l2-1.1l1.4,0.8l-1.4-0.6L375.4,384.7z"/>
	<path class="st24" d="M379.7,386.1c0.4-0.2,0.8-0.4,1.2-0.4c0.4,0,0.9,0,1.3,0.2l1.7-1.7l-1.7,1.6c-0.4-0.1-0.9-0.2-1.3-0.1
		C380.5,385.6,380.1,385.8,379.7,386.1z"/>
	<path class="st24" d="M381.3,391.4c0.3,0.1,0.7,0.2,1,0.3c0.6,0.1,1.2,0.2,1.8,0.1c-0.9,0-1.7-0.2-2.5-0.5l1.5-1.8L381.3,391.4z"/>
	<path class="st24" d="M386.9,391.1l1.4,0.6l1.9-0.9l-1.9,1.1L386.9,391.1z"/>
	<path class="st24" d="M369.8,381.5c5.1-3.1,13-3.4,13-3.4c-4.6-0.1-9.1,1-13.1,3.1c-3.4,1.9-5.2,4.5-5.2,7.1
		C364.5,388.4,364.7,384.7,369.8,381.5z"/>
	<path class="st24" d="M381.3,399.4c5.4,0.2,10.9-0.8,15-3.2c4.3-2.5,6.1-5.8,5.5-9c0,0,0.8,5.2-5.8,8.8S381.3,399.4,381.3,399.4z"
		/>
	<path class="st25" d="M375.8,202.7c-0.3,0-0.3-0.3-0.3-0.4v-29.8l-7.5,1.1c-0.1,0-0.3,0-0.4-0.1s-0.2-0.2-0.3-0.3
		c0-0.1-0.1-0.2,0-0.4c0-0.1,0.1-0.2,0.2-0.3l8.1-8.2v-8.8c0-0.3,0.1-0.6,0.3-0.8c0.1-0.3,0.4-0.5,0.6-0.6l48.8-28.1
		c0.1-0.1,0.2-0.1,0.3-0.1c0.3,0,0.3,0.3,0.3,0.4V173c0,0.3-0.1,0.6-0.3,0.8c-0.1,0.3-0.4,0.5-0.6,0.6l-48.7,28.1
		C376,202.7,375.9,202.7,375.8,202.7L375.8,202.7z"/>
	<path class="st6" d="M425.4,126.1c0,0.1,0,0.1,0,0.2V173c0,0.3-0.1,0.5-0.2,0.7s-0.3,0.4-0.5,0.5L376,202.4
		c-0.1,0.1-0.2,0.1-0.2,0.1c0-0.1,0-0.1,0-0.2v-30.1l-0.6,0.1l-7.2,1h-0.1c-0.1,0-0.1,0-0.2-0.1c-0.1,0-0.1-0.1-0.1-0.2
		c0-0.1,0-0.1,0-0.2c0-0.1,0-0.1,0.1-0.2l8-8.1l0.1-0.1v-8.9c0-0.3,0.1-0.5,0.2-0.7s0.3-0.4,0.5-0.5l48.7-28.2
		C425.3,126.1,425.3,126.1,425.4,126.1z M425.4,125.5c-0.2,0-0.3,0.1-0.4,0.1l-48.7,28.1c-0.3,0.2-0.5,0.4-0.7,0.7s-0.3,0.6-0.3,1
		v8.7l-8,8.1c-0.1,0.1-0.2,0.3-0.2,0.4c0,0.2,0,0.3,0,0.5c0.1,0.2,0.2,0.3,0.3,0.4c0.1,0.1,0.3,0.2,0.5,0.2h0.2l7.2-1v29.5
		c0,0.4,0.2,0.7,0.5,0.7c0.2,0,0.3-0.1,0.4-0.1l48.8-28.1c0.3-0.2,0.5-0.4,0.7-0.7s0.3-0.6,0.3-1v-46.8
		C426,125.8,425.7,125.5,425.4,125.5L425.4,125.5z"/>
	<path class="st15" d="M383.7,193.2c-0.2,0.1-0.3,0-0.3-0.3v-35.5c0-0.1,0-0.2,0.1-0.3c0-0.1,0.1-0.2,0.2-0.3c0.2-0.1,0.3,0,0.3,0.3
		v35.6c0,0.1,0,0.2-0.1,0.3C383.8,193,383.8,193.1,383.7,193.2z"/>
	<path class="st15" d="M420.7,171.8l-40.5,23.4c-0.1,0.1-0.3,0-0.3-0.3c0-0.1,0-0.2,0.1-0.3c0-0.1,0.1-0.2,0.2-0.3l40.5-23.3
		c0.2-0.1,0.3,0,0.3,0.3c0,0.1,0,0.2-0.1,0.3C420.9,171.6,420.8,171.7,420.7,171.8z"/>
	<path class="st7" d="M390.6,160l-5,2.9v25l5-2.9V160z"/>
	<path class="st26" d="M390.6,160l-5,2.9v25l5-2.9V160z"/>
	<path class="st7" d="M397.7,173.2l-5,2.9v7.7l5-2.9V173.2z"/>
	<path class="st7" d="M404.8,165.1l-5,2.9v11.7l5-2.9V165.1z"/>
	<path class="st16" d="M404.8,165.1l-5,2.9v11.7l5-2.9V165.1z"/>
	<path class="st7" d="M411.8,146.4l-5,2.9v26.3l5-2.9V146.4z"/>
	<path class="st7" d="M418.9,157.3l-5,2.9v11.4l5-2.9V157.3z"/>
	<path class="st11" d="M418.9,157.3l-5,2.9v11.4l5-2.9V157.3z"/>
	<path class="st25" d="M358.1,292.9c-0.3,0-0.3-0.3-0.3-0.5v-37.2l-7.6,1.1c-0.1,0-0.3,0-0.4-0.1s-0.2-0.2-0.3-0.3
		c0-0.1-0.1-0.2,0-0.4c0-0.1,0.1-0.2,0.2-0.3l8.1-8.2v-8.8c0-0.3,0.1-0.6,0.3-0.8c0.1-0.3,0.4-0.5,0.6-0.6l44.5-25.8
		c0.1-0.1,0.2-0.1,0.3-0.1c0.3,0,0.3,0.3,0.3,0.4v54.2c0,0.3-0.1,0.6-0.3,0.8c-0.1,0.3-0.4,0.5-0.6,0.6l-44.5,25.7
		C358.3,292.8,358.2,292.8,358.1,292.9L358.1,292.9z"/>
	<path class="st6" d="M403.5,211.2c0,0.1,0,0.1,0,0.2v54.2c0,0.3-0.1,0.5-0.2,0.7s-0.3,0.4-0.5,0.5l-44.5,25.7
		c-0.1,0.1-0.2,0.1-0.2,0.1c0-0.1,0-0.1,0-0.2v-37.5l-0.6,0.1l-7.2,1h-0.1c-0.1,0-0.1,0-0.2-0.1c-0.1,0-0.1-0.1-0.1-0.2
		c0-0.1,0-0.1,0-0.2c0-0.1,0-0.1,0.1-0.2l8-8.1l0.2-0.1v-8.9c0-0.3,0.1-0.5,0.2-0.7s0.3-0.4,0.5-0.5l44.5-25.7
		C403.4,211.2,403.5,211.2,403.5,211.2 M403.6,210.6c-0.2,0-0.3,0-0.4,0.1l-44.5,25.7c-0.3,0.2-0.5,0.4-0.7,0.7s-0.3,0.6-0.3,1v8.7
		l-8,8.1c-0.1,0.1-0.2,0.3-0.2,0.4c0,0.2,0,0.3,0.1,0.5s0.2,0.3,0.3,0.4c0.1,0.1,0.3,0.1,0.5,0.2h0.1l7.2-1v36.9
		c0,0.5,0.2,0.7,0.6,0.7c0.2,0,0.3,0,0.4-0.1l44.5-25.7c0.3-0.2,0.5-0.4,0.7-0.7c0.2-0.3,0.3-0.6,0.3-1v-54.2
		C404.1,210.9,403.9,210.7,403.6,210.6L403.6,210.6z"/>
	<path class="st7" d="M381,228.7c-8.8,4.8-16,19.1-16,31.9c0,12.8,7.2,19.3,16,14.5s16-19.1,16-31.9S389.8,223.9,381,228.7z"/>
	<path class="st10" d="M381,228.7c-8.8,4.8-16,19.1-16,31.9c0,12.8,7.2,19.3,16,14.5s16-19.1,16-31.9S389.8,223.9,381,228.7z"/>
	<path class="st25" d="M381,233.3c-7.1,3.9-12.8,15.3-12.8,25.6s5.7,15.5,12.8,11.6c7.1-3.9,12.8-15.3,12.8-25.6
		S388.1,229.5,381,233.3z"/>
	<path class="st7" d="M381,237.9c-5.3,2.9-9.6,11.5-9.6,19.2s4.3,11.6,9.6,8.7s9.6-11.5,9.6-19.2S386.3,235,381,237.9z"/>
	<path class="st26" d="M381,237.9c-5.3,2.9-9.6,11.5-9.6,19.2s4.3,11.6,9.6,8.7s9.6-11.5,9.6-19.2S386.3,235,381,237.9z"/>
	<path class="st25" d="M381,242.5c-3.6,1.9-6.5,7.7-6.5,12.9c0,5.2,2.9,7.8,6.5,5.9c3.6-2,6.5-7.7,6.5-12.9S384.5,240.6,381,242.5z"
		/>
	<path class="st7" d="M381,247.1c-1.8,1-3.3,3.9-3.3,6.6s1.5,4,3.3,3s3.3-3.9,3.3-6.6S382.8,246.2,381,247.1z"/>
	<path class="st25" d="M228.4,262.9c0.2-0.2,0.3-0.5,0.3-0.8v-36.5l7.6-7.6c0.3-0.3,0.5-0.7,0.6-1.1c0.1-0.4,0-0.5-0.1-0.5l-8.1,1.1
		v-8.8c0-0.5-0.4-0.8-0.9-0.5L183.2,234c-0.1,0.1-0.2,0.2-0.3,0.3c-0.2,0.2-0.3,0.5-0.3,0.8v53.5c0,0.5,0.4,0.8,0.9,0.5l44.7-25.8
		C228.2,263.1,228.4,263,228.4,262.9L228.4,262.9z"/>
	<path class="st6" d="M183.1,289.3c-0.1,0-0.2,0-0.4-0.1c-0.1-0.1-0.2-0.2-0.3-0.3c-0.1-0.1-0.1-0.3-0.1-0.4V235
		c0-0.3,0.1-0.7,0.4-0.9c0.1-0.1,0.2-0.2,0.4-0.3l44.7-25.8c0.1-0.1,0.3-0.1,0.4-0.1c0.1,0,0.3,0,0.4,0.1c0.1,0.1,0.2,0.2,0.3,0.3
		s0.1,0.3,0.1,0.4v8.5l7.8-1.1c0.1,0,0.1,0,0.2,0c0.1,0,0.1,0.1,0.2,0.1c0.1,0.1,0.1,0.4,0,0.7c-0.1,0.4-0.4,0.9-0.7,1.2
		c0,0,0,0-7.5,7.6v36.4c0,0.3-0.1,0.7-0.3,0.9c-0.1,0.1-0.2,0.2-0.4,0.3l-44.7,25.8C183.4,289.3,183.2,289.3,183.1,289.3z
		 M228.2,208.3c-0.1,0-0.2,0-0.2,0.1l-44.7,25.8c-0.1,0.1-0.2,0.1-0.2,0.2c-0.1,0.2-0.2,0.4-0.2,0.6v53.4c0,0.1,0,0.1,0,0.2
		s0.1,0.1,0.1,0.1c0.1,0,0.1,0,0.2,0c0.1,0,0.1,0,0.2,0l44.7-25.9c0.1-0.1,0.2-0.1,0.2-0.2c0.1-0.2,0.2-0.4,0.2-0.6v-36.6l0.1-0.1
		l7.6-7.6c0.3-0.3,0.5-0.6,0.6-1c0-0.1,0-0.1,0-0.2l-8.2,1.1v-9.1c0-0.1,0-0.1,0-0.2C228.4,208.4,228.3,208.4,228.2,208.3
		L228.2,208.3z"/>
	<path class="st7" d="M204.8,227.9v20.4l-12.4,19.8c-4.4-5.6-3.1-19.6,3.7-30.7C198.9,233,201.4,230.1,204.8,227.9z"/>
	<path class="st26" d="M204.8,227.9v20.4l-12.4,19.8c-4.4-5.6-3.1-19.6,3.7-30.7C198.9,233,201.4,230.1,204.8,227.9z"/>
	<path class="st7" d="M221.7,245.9c-2.4,12.4-11,23.9-19.4,26c-3.4,0.8-6.1,0.2-8.4-2l12.5-20.2L221.7,245.9z"/>
	<path class="st16" d="M221.7,245.9c-2.4,12.4-11,23.9-19.4,26c-3.4,0.8-6.1,0.2-8.4-2l12.5-20.2L221.7,245.9z"/>
	<path class="st7" d="M222,243.8l-14.7,3.6l8.2-21.7C220.8,227.6,223.3,234.6,222,243.8z"/>
	<path class="st7" d="M214,225.5l-7.4,19.6v-18.2C209.3,225.4,211.6,225,214,225.5z"/>
	<path class="st10" d="M214,225.5l-7.4,19.6v-18.2C209.3,225.4,211.6,225,214,225.5z"/>
	<path class="st25" d="M251.2,167c0.2-0.2,0.3-0.5,0.3-0.8v-5.9l7.6-7.6c0.3-0.3,0.5-0.7,0.6-1.1c0.1-0.3,0-0.5-0.1-0.5l-8,1.1
		v-25.1c0-0.1,0-0.2,0-0.3c0-0.1-0.1-0.2-0.2-0.2c-0.1-0.1-0.2-0.1-0.3-0.1s-0.2,0.1-0.3,0.1l-44.7,25.8c-0.1,0.1-0.2,0.2-0.3,0.3
		c-0.2,0.2-0.3,0.5-0.3,0.8v39.1c0,0.5,0.4,0.8,0.9,0.5l44.7-25.8C251,167.2,251.1,167.1,251.2,167L251.2,167z"/>
	<path class="st6" d="M205.8,193.4c-0.1,0-0.2,0-0.3-0.1s-0.2-0.2-0.3-0.3s-0.1-0.3-0.1-0.4v-39.1c0-0.3,0.1-0.7,0.3-0.9
		c0.1-0.1,0.2-0.2,0.4-0.3l44.7-25.8c0.1-0.1,0.3-0.1,0.4-0.1c0.2,0,0.3,0,0.4,0.1c0.1,0.1,0.2,0.2,0.3,0.3c0.1,0.1,0.1,0.3,0.1,0.4
		V152l7.8-1.1c0.1,0,0.1,0,0.2,0s0.1,0.1,0.2,0.1c0.1,0.1,0.1,0.2,0.1,0.4s0,0.2-0.1,0.4c-0.1,0.4-0.4,0.9-0.7,1.2c0,0,0,0-7.5,7.6
		v5.8c0,0.3-0.1,0.7-0.3,0.9c-0.1,0.1-0.2,0.2-0.4,0.3l-44.6,25.8C206.1,193.4,206,193.4,205.8,193.4z M251,126.7
		c-0.1,0-0.2,0-0.2,0.1L206,152.6c-0.1,0.1-0.2,0.1-0.2,0.2c-0.1,0.2-0.2,0.4-0.2,0.6v39.1c0,0.2,0,0.3,0.1,0.3s0.1,0,0.2,0
		c0.1,0,0.1,0,0.2-0.1l44.7-25.8c0.1-0.1,0.2-0.1,0.2-0.2c0.1-0.2,0.2-0.4,0.2-0.6v-6l0.1-0.1l7.6-7.6c0.3-0.3,0.5-0.6,0.6-1
		c0-0.1,0-0.1,0-0.2l-8.2,1.1V127C251.2,126.9,251.2,126.8,251,126.7L251,126.7z"/>
	<path class="st7" d="M234.5,156.1c-1.4,0.1-2.8,0.4-4.1,0.9c-3,1-4.5,1.5-4.5-0.2c0-0.3,0.1-0.7,0.2-1c0.5-1,1.3-1.8,2.4-2.4
		c2-1.2,3.1-0.9,3.4,0.4l5.5-4.7c-0.2-0.7-0.6-1.3-1.2-1.8c-0.6-0.4-1.3-0.7-2-0.7c-1.2,0-2.4,0.3-3.4,0.8v-3.3l-2.8,1.6l-1.7,1v3.4
		c-3.9,2.8-6.3,6.5-6.3,10.4c0,0.7,0.1,1.5,0.3,2.2c0.8,2.1,3.2,1.8,5.6,1.1c0.9-0.3,1.7-0.6,2.4-0.8c1.8-0.6,3-0.8,3,0.7
		c0,1.3-1,2.5-2.5,3.4c-2.4,1.4-3.3,0.2-3.5-0.9l-5.8,4.9c0.1,0.4,0.2,0.8,0.4,1.2c0.4,0.6,0.9,1.2,1.6,1.4c0.7,0.3,1.4,0.4,2.1,0.2
		c1-0.1,1.9-0.4,2.8-0.9v3.4l4.5-2.6v-3.4c3.9-2.9,6.6-6.7,6.6-10.8C237.6,156.8,236.3,156,234.5,156.1z"/>
	<path class="st9" d="M234.5,156.1c-1.4,0.1-2.8,0.4-4.1,0.9c-3,1-4.5,1.5-4.5-0.2c0-0.3,0.1-0.7,0.2-1c0.5-1,1.3-1.8,2.4-2.4
		c2-1.2,3.1-0.9,3.4,0.4l5.5-4.7c-0.2-0.7-0.6-1.3-1.2-1.8c-0.6-0.4-1.3-0.7-2-0.7c-1.2,0-2.4,0.3-3.4,0.8v-3.3l-2.8,1.6l-1.7,1v3.4
		c-3.9,2.8-6.3,6.5-6.3,10.4c0,0.7,0.1,1.5,0.3,2.2c0.8,2.1,3.2,1.8,5.6,1.1c0.9-0.3,1.7-0.6,2.4-0.8c1.8-0.6,3-0.8,3,0.7
		c0,1.3-1,2.5-2.5,3.4c-2.4,1.4-3.3,0.2-3.5-0.9l-5.8,4.9c0.1,0.4,0.2,0.8,0.4,1.2c0.4,0.6,0.9,1.2,1.6,1.4c0.7,0.3,1.4,0.4,2.1,0.2
		c1-0.1,1.9-0.4,2.8-0.9v3.4l4.5-2.6v-3.4c3.9-2.9,6.6-6.7,6.6-10.8C237.6,156.8,236.3,156,234.5,156.1z"/>
	<path class="st7" d="M210.6,416.1c-8.4-4.9-22.2-4.9-30.6,0c-4.2,2.4-6.3,5.6-6.3,8.8v3.6c0,3.2,2.1,6.4,6.3,8.8
		c8.5,4.9,22.2,4.9,30.6,0c4.2-2.5,6.3-5.7,6.3-8.9v-3.6C216.9,421.7,214.8,418.5,210.6,416.1z"/>
	<path class="st12" d="M210.6,416.1c-8.4-4.9-22.2-4.9-30.6,0c-4.2,2.4-6.3,5.6-6.3,8.8v3.6c0,3.2,2.1,6.4,6.3,8.8
		c8.5,4.9,22.2,4.9,30.6,0c4.2-2.5,6.3-5.7,6.3-8.9v-3.6C216.9,421.7,214.8,418.5,210.6,416.1z"/>
	<path class="st12" d="M185.3,413.8c-1.8,0.5-3.6,1.3-5.3,2.2c-4.2,2.4-6.3,5.6-6.3,8.8v3.6c0,3.2,2.1,6.4,6.3,8.8
		c1.7,1,3.5,1.7,5.3,2.2V413.8z"/>
	<path class="st7" d="M180,416.1c8.4-4.9,22.1-4.9,30.6,0c8.4,4.9,8.4,12.8,0,17.7c-8.5,4.9-22.2,4.9-30.6,0
		C171.5,428.9,171.5,421,180,416.1z"/>
	<path class="st20" d="M180,416.1c8.4-4.9,22.1-4.9,30.6,0c8.4,4.9,8.4,12.8,0,17.7c-8.5,4.9-22.2,4.9-30.6,0
		C171.5,428.9,171.5,421,180,416.1z"/>
	<path class="st7" d="M195.3,407.6c-20.7,0-23.4,8.9-23.4,13.5s2.8,8.4,8.6,11.7c4.5,2.4,9.6,3.6,14.8,3.5
		c5.2,0.1,10.2-1.1,14.8-3.5c5.8-3.3,8.6-7.1,8.6-11.7S216,407.6,195.3,407.6z"/>
	<path class="st27" d="M203,426.3l-0.4,0.1c-1.5,0.2-4.4,0-5.6,1.2c-2.1,2,0.8,3.8,2.6,4.4c3,0.8,6.3,0.5,9.1-0.8
		c2.4-1.1,4.5-2.9,6-5.1c0.6-1,1.6-3.8,0.2-4.4c-0.4-0.2-0.8-0.2-1.2-0.1s-0.8,0.3-1,0.6c-0.7,0.6-1.4,1.1-2.2,1.6
		c-0.7,0.5-1.4,0.9-2.1,1.2C206.7,425.6,204.9,426.1,203,426.3z"/>
	<path class="st17" d="M192.8,423.6c12.2,1.1,20.8-3.8,23.8-9c-2.7-3.6-8.6-7-21.3-7c-20.7,0-23.4,8.9-23.4,13.5s2.8,8.4,8.6,11.7
		c4.5,2.4,9.6,3.6,14.8,3.5c5.2,0.1,10.2-1.1,14.8-3.5c1.2-0.7,2.4-1.5,3.5-2.4c-4.4,3-11.6,5.3-20.8,3.9
		C183.4,433,180,422.5,192.8,423.6z"/>
	<path class="st17" d="M185.3,419.8l-1.1-11c-10.6,2.5-12.3,8.8-12.3,12.4c0,4.6,2.8,8.4,8.6,11.7c0.2,0.1,0.4,0.2,0.6,0.3
		C174.7,429,178.6,417.9,185.3,419.8z"/>
	<path class="st7" d="M209.7,396.7c-8-4.6-20.9-4.6-28.8,0c-4,2.3-6,5.3-5.9,8.3v4.5c0,3,2,6,5.9,8.3c8,4.6,20.9,4.6,28.8,0
		c4-2.3,6-5.3,5.9-8.3V405C215.6,402,213.7,399,209.7,396.7z"/>
	<path class="st12" d="M209.7,396.7c-8-4.6-20.9-4.6-28.8,0c-4,2.3-6,5.3-5.9,8.3v4.5c0,3,2,6,5.9,8.3c8,4.6,20.9,4.6,28.8,0
		c4-2.3,6-5.3,5.9-8.3V405C215.6,402,213.7,399,209.7,396.7z"/>
	<path class="st12" d="M180.9,417.9c1.4,0.8,2.9,1.4,4.4,1.9v-25c-1.5,0.5-3,1.1-4.4,1.9c-4,2.3-6,5.3-5.9,8.3v4.5
		C174.9,412.5,176.9,415.6,180.9,417.9z"/>
	<path class="st7" d="M180.9,396.7c8-4.6,20.9-4.6,28.8,0c8,4.6,8,12,0,16.6s-20.9,4.6-28.8,0C172.9,408.7,172.9,401.3,180.9,396.7z
		"/>
	<path class="st26" d="M180.9,396.7c8-4.6,20.9-4.6,28.8,0c8,4.6,8,12,0,16.6s-20.9,4.6-28.8,0C172.9,408.7,172.9,401.3,180.9,396.7
		z"/>
	<path class="st7" d="M213.1,402c-2.4-5-8.6-20.2-8.6-45h-18.3c0,24.8-6.2,40-8.6,45c-1.5,3.3,0.1,6.9,4.8,9.4
		c7.2,3.9,18.8,3.9,25.9,0C213,408.8,214.6,405.2,213.1,402z"/>
	<path class="st27" d="M203.8,373.4c0.9,7.9,2.5,15.6,5,23.1c1.6,4.8,3.9,8.2,0.9,11.2c-3.1,3-10.6,4-10.6,4c2.7-1,5.2-2.5,7.4-4.4
		c3.1-2.9,1.2-7.2,0.3-10.8C205.3,390.6,203.3,381.4,203.8,373.4z"/>
	<path class="st17" d="M197.7,414.2c-1.6-0.6-4.8-1.7-2.4-13.8c2.4-12,2.4-30.9,2.3-43.5h-11.5c0,24.8-6.2,40-8.6,45
		c-1.5,3.3,0.1,6.9,4.8,9.4C186.5,413.7,192.2,414.6,197.7,414.2z"/>
	<path class="st17" d="M187,394.3c2.1-8,2.8-24.6,2.8-37.3h-3.7c0,24.8-6.2,40-8.6,45c-1.5,3.3,0.1,6.9,4.8,9.4
		c1.3,0.7,2.6,1.2,4,1.6C180.3,409.4,184.8,402.6,187,394.3z"/>
	<path class="st7" d="M205.5,343.5c-5.6-3.3-14.8-3.3-20.4,0c-2.8,1.6-4.2,3.8-4.2,5.9v5.2c0,2.1,1.4,4.3,4.2,5.9
		c5.6,3.2,14.8,3.2,20.4,0c2.8-1.6,4.2-3.8,4.2-5.9c0-0.4,0-4.8,0-5.2C209.7,347.3,208.3,345.2,205.5,343.5z"/>
	<path class="st12" d="M205.5,343.5c-5.6-3.3-14.8-3.3-20.4,0c-2.8,1.6-4.2,3.8-4.2,5.9v5.2c0,2.1,1.4,4.3,4.2,5.9
		c5.6,3.2,14.8,3.2,20.4,0c2.8-1.6,4.2-3.8,4.2-5.9c0-0.4,0-4.8,0-5.2C209.7,347.3,208.3,345.2,205.5,343.5z"/>
	<path class="st12" d="M193.6,341.2c-3,0.1-5.9,1-8.5,2.4c-2.8,1.6-4.2,3.8-4.2,5.9v5.2c0,2.1,1.4,4.3,4.2,5.9
		c2.6,1.4,5.5,2.2,8.5,2.4V341.2z"/>
	<path class="st7" d="M185.1,343.5c5.6-3.3,14.8-3.3,20.4,0c5.6,3.3,5.6,8.5,0,11.8s-14.8,3.3-20.4,0
		C179.4,352.1,179.4,346.8,185.1,343.5z"/>
	<path class="st26" d="M185.1,343.5c5.6-3.3,14.8-3.3,20.4,0c5.6,3.3,5.6,8.5,0,11.8s-14.8,3.3-20.4,0
		C179.4,352.1,179.4,346.8,185.1,343.5z"/>
	<path class="st7" d="M206.6,322.1c-6.3-3.6-16.4-3.6-22.7,0c-3.6,2.1-5.1,4.9-4.6,7.6l4,19.6c0.3,0.9,0.7,1.7,1.3,2.4
		c0.6,0.7,1.3,1.3,2.1,1.7c4.7,2.7,12.3,2.7,17,0c0.8-0.4,1.6-1,2.1-1.7c0.6-0.7,1-1.5,1.3-2.4l4-19.6
		C211.7,327,210.2,324.1,206.6,322.1z"/>
	<path class="st27" d="M207.6,322.7c-0.9,7.3-2.8,22.1-3.8,30.5c0.8-0.4,1.5-1,2.1-1.6c0.6-0.7,1-1.5,1.2-2.4l4-19.6
		C211.7,327.2,210.5,324.7,207.6,322.7z"/>
	<path class="st17" d="M187.5,320.5c-1.2,0.4-2.4,0.9-3.6,1.5c-3.6,2.1-5.1,4.9-4.6,7.6l4,19.6c0.3,0.9,0.7,1.7,1.3,2.4
		c0.6,0.7,1.3,1.3,2.1,1.7c1.1,0.6,2.2,1.1,3.4,1.4L187.5,320.5z"/>
	<path class="st7" d="M183.9,322.1c6.3-3.6,16.4-3.6,22.7,0s6.3,9.5,0,13.1s-16.4,3.6-22.7,0C177.7,331.5,177.7,325.7,183.9,322.1z"
		/>
	<path class="st26" d="M183.9,322.1c6.3-3.6,16.4-3.6,22.7,0s6.3,9.5,0,13.1s-16.4,3.6-22.7,0C177.7,331.5,177.7,325.7,183.9,322.1z
		"/>
	<path class="st7" d="M206.4,323.9l-0.2-0.2l-0.2-0.2c-2.9-2.7-6.7-4.2-10.6-4.2c-3.9,0-7.7,1.5-10.6,4.2c-0.1,0.1-0.2,0.2-0.3,0.3
		l-0.2,0.2c-2.7,2.8-2,6.5,2.1,8.9c5,2.9,13.1,2.9,18.2,0C208.6,330.5,209.2,326.8,206.4,323.9z"/>
	<path class="st26" d="M201,321.1c2,0.9,3.7,2.2,5.2,3.8c0.5,0.9,0.7,1.8,0.6,2.8c-0.1,1-0.4,1.9-1,2.7c0.5-1.7,0.3-3.6-0.6-5.2
		C204.2,323.5,202.7,322.1,201,321.1z"/>
	<path class="st17" d="M186.6,330.2c-3.2-3-1.6-6.3,0.7-8.6c-0.9,0.6-1.8,1.2-2.6,2c-0.1,0.1-0.2,0.2-0.3,0.3l-0.2,0.2
		c-2.7,2.8-2,6.5,2.1,8.9c5,2.9,13.2,2.9,18.2,0c0.8-0.5,1.5-1,2.2-1.7c-0.2,0.2-1.6,1.5-6.5,2C192.6,333.9,189,332.4,186.6,330.2z"
		/>
	<path class="st7" d="M201.9,315.9c0,1.3-0.4,2.6-1.1,3.7c-0.7,1.1-1.8,1.9-3,2.4s-2.5,0.6-3.8,0.4c-1.3-0.3-2.5-0.9-3.4-1.8
		s-1.6-2.1-1.8-3.4c-0.3-1.3-0.1-2.6,0.4-3.8c0.5-1.2,1.4-2.2,2.4-3c1.1-0.7,2.4-1.1,3.7-1.1c1.8,0,3.4,0.7,4.7,1.9
		C201.2,312.5,201.9,314.2,201.9,315.9z"/>
	<path class="st12" d="M201.9,316c0,1.3-0.4,2.5-1.1,3.6c-0.7,1.1-1.7,1.9-2.9,2.5c-1.2,0.5-2.5,0.7-3.7,0.5
		c-1.3-0.2-2.4-0.8-3.4-1.6c-1-0.9-1.6-2-2-3.2c-0.3-1.2-0.3-2.5,0.1-3.8c0.4-1.2,1.1-2.3,2.1-3.1c1-0.8,2.2-1.3,3.5-1.5
		c-0.9,0.3-1.6,0.9-2.2,1.6c-0.6,0.7-1,1.6-1.1,2.5c-0.2,0.9-0.1,1.9,0.2,2.8s0.9,1.7,1.6,2.3c0.7,0.6,1.6,1,2.5,1.2
		s1.9,0.1,2.8-0.1c0.9-0.3,1.7-0.8,2.3-1.5s1.1-1.5,1.3-2.4C201.9,315.9,201.9,315.9,201.9,316z"/>
	<path class="st26" d="M197.2,310.5c-0.5-0.1-0.9-0.1-1.4,0c-0.3,0-0.6,0.2-0.8,0.5s-0.3,0.6-0.3,0.9c0,0.8,1,1.2,1.7,1.4l1.2,0.4
		c0.5,0.2,1,0.5,1.5,0.6s0.8-0.3,0.9-0.8c0-0.4-0.1-0.8-0.2-1.2c-0.2-0.4-0.5-0.7-0.8-1C198.3,310.9,197.8,310.6,197.2,310.5z"/>
	<path class="st7" d="M529.9,188.6l-5.2-3l-0.4-0.2c-0.6-0.3-1.2-0.4-1.8-0.3c-0.5,0.1-1.1,0.3-1.5,0.6l-0.2,0.1
		c-1.4,1-2.5,2.3-3.2,3.8c-0.9,1.7-1.4,3.6-1.4,5.5c0,1.8,0.5,3.1,1.5,3.8c0.1,0.1,0.2,0.1,0.3,0.2l5.6,3.2
		c-0.1-0.1-0.2-0.1-0.3-0.2c-1-0.7-1.5-2-1.5-3.8c0-1.9,0.5-3.8,1.4-5.5c0.8-1.6,2-3,3.5-3.9c0.5-0.4,1-0.6,1.6-0.6
		C528.8,188.2,529.4,188.4,529.9,188.6L529.9,188.6z"/>
	<path class="st20" d="M529.9,188.6c-0.5-0.3-1.1-0.4-1.7-0.3c-0.6,0.1-1.2,0.3-1.6,0.6c-1.4,0.9-2.5,2.1-3.3,3.6l-5.6-3.2
		c0.7-1.4,1.7-2.5,3-3.4l0.2-0.1c0.5-0.3,1-0.5,1.5-0.6c0.6-0.1,1.3,0,1.8,0.3l0.4,0.2L529.9,188.6L529.9,188.6z"/>
	<path class="st12" d="M523.4,202.4l-5.6-3.2c-0.1-0.1-0.2-0.1-0.3-0.2c-1-0.7-1.5-2-1.5-3.8c0-1.9,0.5-3.8,1.5-5.5
		c0.1-0.1,0.1-0.3,0.2-0.4l5.6,3.2l-0.2,0.4c-0.9,1.7-1.4,3.6-1.4,5.5c0,1.8,0.5,3.1,1.5,3.8C523.2,202.2,523.3,202.3,523.4,202.4z"
		/>
	<path class="st7" d="M527.5,141.5c2.7-1.6,5-2.2,6.9-2c0.8,0.1,1.5,0.3,2.2,0.7h-0.1L531,137c-0.7-0.4-1.4-0.7-2.2-0.8
		c-1.9-0.2-4.2,0.4-6.9,2c-4.3,2.5-7.8,6.2-10.2,10.7c-2.5,4.4-3.8,9.4-3.8,14.4l5.6,3.2c0-5.1,1.3-10,3.8-14.4
		C519.6,147.8,523.2,144.1,527.5,141.5z"/>
	<path class="st12" d="M517,152.8c-2.3,4.2-3.5,9-3.5,13.8l-5.6-3.2c0-4.8,1.2-9.6,3.5-13.8L517,152.8z"/>
	<path class="st7" d="M531.3,150.6c-1-0.5-2.3-0.3-4,0.6c-0.1,1-0.3,2-0.6,2.9c-1.1,2.4-2.3,4.7-3.7,7c-2,3.3-3.5,6.9-4.6,10.5
		c-1,3.3-1.5,6.8-1.5,10.2v1.7l3.8,2.2l1.8,1V185v-0.1c0-3.4,0.5-6.8,1.4-10.1c1.1-3.7,2.6-7.2,4.6-10.5c1.4-2.3,2.6-4.6,3.7-7.1
		c0.4-1.1,0.6-2.3,0.6-3.5C532.8,152.3,532.3,151.2,531.3,150.6z"/>
	<path class="st12" d="M531.6,158.7c-0.6,1.3-1.7,3.3-3.1,5.8c-2,3.3-3.5,6.8-4.6,10.5c-0.9,3.3-1.4,6.7-1.4,10.1v0.1v1.7l-1.8-1
		l-3.7-2.2V182c0-3.4,0.5-6.9,1.4-10.2c1.1-3.7,2.6-7.2,4.6-10.5c1.5-2.6,2.5-4.5,3.2-5.8L531.6,158.7z"/>
	<path class="st20" d="M532.8,153.9c0,1.2-0.2,2.4-0.6,3.5c-0.1,0.3-0.3,0.7-0.5,1.2l-5.6-3.2c0.2-0.5,0.4-0.9,0.5-1.2
		c0.4-0.9,0.6-1.9,0.6-2.9c1.7-1,3-1.2,4-0.6C532.3,151.2,532.8,152.3,532.8,153.9z"/>
	<path class="st7" d="M521.1,162.3l-7.5,4.4c0-5.1,1.3-10,3.8-14.4c2.3-4.4,5.8-8.1,10.2-10.7c2.7-1.6,5-2.2,6.9-2
		c1,0.1,1.9,0.5,2.7,1s1.5,1.3,1.9,2.1c1.2,2.1,1.8,4.5,1.7,6.9c0,1.6-0.2,3.2-0.6,4.8c-0.4,1.9-1,3.7-1.7,5.5
		c-1,2.2-2.1,4.4-3.3,6.4s-2.2,4-3.1,6.1c-0.5,1.3-0.8,2.6-1.1,3.9c-0.3,2-0.5,4-0.5,6.1l-7.8,4.5v-1.7c0-3.4,0.4-6.9,1.3-10.2
		c1.1-3.7,2.6-7.2,4.6-10.5c1.4-2.3,2.6-4.6,3.7-7.1c0.4-1.1,0.6-2.3,0.6-3.5c0-1.6-0.5-2.7-1.5-3.3s-2.4-0.3-4.1,0.7
		c-1.8,1.1-3.4,2.7-4.4,4.6C521.7,157.8,521.1,160,521.1,162.3z"/>
	<path class="st16" d="M521.1,162.3l-7.5,4.4c0-5.1,1.3-10,3.8-14.4c2.3-4.4,5.8-8.1,10.2-10.7c2.7-1.6,5-2.2,6.9-2
		c1,0.1,1.9,0.5,2.7,1s1.5,1.3,1.9,2.1c1.2,2.1,1.8,4.5,1.7,6.9c0,1.6-0.2,3.2-0.6,4.8c-0.4,1.9-1,3.7-1.7,5.5
		c-1,2.2-2.1,4.4-3.3,6.4s-2.2,4-3.1,6.1c-0.5,1.3-0.8,2.6-1.1,3.9c-0.3,2-0.5,4-0.5,6.1l-7.8,4.5v-1.7c0-3.4,0.4-6.9,1.3-10.2
		c1.1-3.7,2.6-7.2,4.6-10.5c1.4-2.3,2.6-4.6,3.7-7.1c0.4-1.1,0.6-2.3,0.6-3.5c0-1.6-0.5-2.7-1.5-3.3s-2.4-0.3-4.1,0.7
		c-1.8,1.1-3.4,2.7-4.4,4.6C521.7,157.8,521.1,160,521.1,162.3z"/>
	<path class="st7" d="M526.6,188.9c1.4-0.8,2.6-0.9,3.6-0.2s1.5,2,1.5,3.8c0,1.9-0.5,3.8-1.5,5.5c-0.8,1.6-2,3-3.5,4
		c-1.4,0.8-2.6,0.8-3.5,0.1c-1-0.7-1.5-2-1.5-3.8c0-1.9,0.5-3.8,1.4-5.5C523.8,191.3,525,189.9,526.6,188.9z"/>
	<path class="st16" d="M526.6,188.9c1.4-0.8,2.6-0.9,3.6-0.2s1.5,2,1.5,3.8c0,1.9-0.5,3.8-1.5,5.5c-0.8,1.6-2,3-3.5,4
		c-1.4,0.8-2.6,0.8-3.5,0.1c-1-0.7-1.5-2-1.5-3.8c0-1.9,0.5-3.8,1.4-5.5C523.8,191.3,525,189.9,526.6,188.9z"/>
	<path class="st14" d="M441.3,501.5v53.3c0,2.6-1.8,4.1-4.1,5.4l-5.6,3.2c-0.6,0.4-1.3,0.8-2.1,0.9c-0.8,0.1-1.5,0.1-2.3,0
		c-1.1-0.3-2.1-0.7-3-1.2c0,0-0.1,0-0.1-0.1l-0.3-0.2l-57.3-33.1c-2.1-1.2-3.8-2.9-5-5s-1.8-4.4-1.8-6.8v-48.5
		c0-0.6,0.2-1.2,0.5-1.7s0.7-1,1.2-1.3l9.6-5.5c0.5-0.3,1.1-0.4,1.7-0.4s1.2,0.1,1.7,0.4l65,37.5c0.5,0.3,0.9,0.8,1.2,1.3
		C441.1,500.3,441.3,500.9,441.3,501.5z"/>
	<path class="st28" d="M441.3,501.5v53.3c0,2.6-1.8,4.1-4.1,5.4l-5.6,3.2c-0.6,0.4-1.3,0.8-2.1,0.9c-0.8,0.1-1.5,0.1-2.3,0
		c-1.1-0.3-2.1-0.7-3-1.2c2.2,1,4-0.1,4-2.8v-50.2c0-0.9-0.3-1.8-0.8-2.6l13.3-7.7C441.1,500.3,441.3,500.9,441.3,501.5z"/>
	<path class="st15" d="M428.2,510.1c0-0.9-0.3-1.8-0.8-2.6c-0.5-0.8-1.1-1.5-1.9-2L364.2,470c-2.4-1.4-4.4-0.3-4.4,2.6V518
		c0,2.4,0.6,4.7,1.8,6.8c1.2,2.1,2.9,3.8,5,5l57.3,33.1c2.4,1.4,4.4,0.2,4.4-2.5L428.2,510.1z"/>
	<path class="st7" d="M368,462.8l65.1,38c0.9,0.5,1.7,1.3,2.2,2.2s0.8,2,0.8,3v54.9l-1,0.6V506c0-0.9-0.2-1.8-0.7-2.5
		c-0.4-0.8-1.1-1.4-1.9-1.9L367,463.3L368,462.8z"/>
	<path class="st12" d="M435.3,503c0.5,0.9,0.8,1.9,0.8,3v54.9l-1,0.6V506c0-0.9-0.2-1.8-0.7-2.5L435.3,503z"/>
	<path class="st12" d="M434.5,503.5c-0.4-0.8-1.1-1.4-1.9-1.9L367,463.3l1-0.6l65.1,38c0.9,0.5,1.7,1.3,2.2,2.2"/>
	<path class="st7" d="M391.1,469.6v8.2l-3.2,1.9v-11c0-0.6,0.4-0.8,0.9-0.5L391.1,469.6z"/>
	<path class="st20" d="M391.1,469.6v8.2l-3.2,1.9v-11c0-0.6,0.4-0.8,0.9-0.5L391.1,469.6z"/>
	<path class="st7" d="M413.8,477.7v13.4l-3.1,1.8l-2.1-1.2v-11c0-0.3-0.1-0.6-0.3-0.9c-0.2-0.3-0.4-0.5-0.6-0.7l-15.8-9l-3.3-1.9
		c-0.5-0.3-0.9,0-0.9,0.5v11l-2.1-1.2v-13.4c0-0.1,0-0.1,0-0.2c0-0.3,0.1-0.5,0.3-0.8c0.1-0.2,0.3-0.4,0.6-0.6l1.3-0.8
		c0.3-0.1,0.6-0.2,0.9-0.2s0.6,0.1,0.9,0.2l23.1,13.4c0.3,0.2,0.5,0.4,0.6,0.7C413.7,477.1,413.8,477.4,413.8,477.7z"/>
	<path class="st12" d="M410.7,479.5v13.4l-2.1-1.2v-11c0-0.3-0.1-0.6-0.3-0.9c-0.2-0.3-0.4-0.5-0.6-0.7l-15.8-9l-3.3-1.9
		c-0.5-0.3-0.9,0-0.9,0.5v11l-2.1-1.2v-13.4c0-0.1,0-0.1,0-0.2c0.1-0.4,0.4-0.6,0.9-0.3l23.2,13.4c0.3,0.2,0.5,0.4,0.6,0.7
		C410.6,478.9,410.7,479.2,410.7,479.5z"/>
	<path class="st28" d="M556.4,502.9c0,1.6,0.3,2.2-1.7,3.7s-6.2,2.1-9.5,1.2c-2.1-0.4-3.9-1.5-5.2-3.2c-1.1-1.5-2.1-3-3-4.6
		c-0.6-0.7-3.2-2.1-5.8-3.2s-7.8-3.6-9.7-7.9c-1.1-2.3-1.3-5-0.6-7.5L556.4,502.9z"/>
	<path class="st14" d="M539.3,480.8c5.2,3.4,9.6,11.9,16.7,9.3c0.3,4.2,1.5,8.7,0.5,12.8c-3,3.8-9.7,4.5-13.5,1.8
		c-1.9-1.6-3-3.6-4.9-5.3c-1.5-1.3-3.3-2.4-5.1-3.1c-2.1-1-4.2-2.2-6.2-3.4C515.3,484.4,521,468.8,539.3,480.8z"/>
	<path class="st28" d="M520.9,527.3c0,1.7-0.1,3.1-1.2,3.8s-9,2-11.2,2.3c-2.1,0.2-2.4-1.1-3.9-0.6s-4.9,3-10.1,4.2s-9.5,2.4-16.7,0
		s-7.9-5.2-7.8-7.6C470.1,526.8,520.9,527.3,520.9,527.3z"/>
	<path class="st14" d="M519.9,511c1.2,5,2.4,12.5,1,16.3c-1.5,1.4-6.3,2.3-10.6,2.9c-3.9,0.5-7.7,1.7-11.2,3.5
		c-8.3,3.4-22.8,4.7-28.5-3.1c-5.8-10.4,24.3-7.8,28-19.8C499.8,506.4,514.4,512.2,519.9,511z"/>
	<path class="st15" d="M558.1,445.3c0-4.9-0.9-9.7-2.6-14.3c0-44.1,0-67.9-1.3-95.5c0,0-58.8-6.2-60.2,14.1s-1.1,78-0.6,86.9
		c0.2,9.1,4.7,69.2,4.7,75.6c14.9,7.4,22.2,1,22.2,1c-0.4-21.6,4-47,1.5-59.9l4.3-42.7c0,0,10.2,66.3,11.9,82.8
		c4.4,6.5,16,2.8,18.1-1.1C557,477,558.2,466.5,558.1,445.3z"/>
	<path class="st14" d="M526.2,410.6l3.1-26.7c0,0,10.2-3.9,16.7-12.1c-0.3,5.6-6.8,11.4-12.8,14.4l-4.5,23l1.9,30.9L526.2,410.6z"/>
	<path class="st15" d="M548.2,269.6c10.5,2.1,11.9,4,16.1,11.4s14.6,25.7,16.4,30.6s3.8,7.9-3.4,15.9c-5.9,6.6-22.7,24.5-22.7,24.5
		l-9-12.7l13-20.6L546,296.5L548.2,269.6z"/>
	<path class="st14" d="M558.6,318.7c2.4,3.7,6.1,5.9,8,6.1c-3.5,0-6.8-0.6-9.2-4.1L558.6,318.7z"/>
	<path class="st29" d="M516,261.5l0.4,10.4l20-1.6l-1-17.4L516,261.5z"/>
	<path class="st30" d="M504.9,237.9c0,0-5.7,7.6-5.1,8.4c0.5,0.8,4.4,1.8,4.4,1.8L504.9,237.9z"/>
	<path class="st29" d="M518.4,220.4c-9.2,1.4-14.1,4.1-14,18.5c0,3.7-1.4,6.2-1.5,10.4c-0.1,8,1.6,11,3,12.7
		c1.2,1.5,8.5,1.5,12.3,0.7c4.8-1,15.8-3.5,21.2-10.8c6.4-8.6,8.6-20.6,2.7-25.9C533.7,218.5,522.1,219.9,518.4,220.4z"/>
	<path class="st30" d="M516.1,263l-0.3-3.2c0,0-4.5,3.2-9.3,2.6C508.2,263.3,512.5,263.4,516.1,263z"/>
	<path class="st28" d="M505.9,226.4c-0.2,3.2,3.3,5,5.7,5.4c0.7,0.1,1.5,0.1,2.1-0.2c-0.1,2.2,1,3.4,1.5,4.4c0.8,1.6-0.5,2.4-0.7,5
		c-0.1,1.1,1.3,2.5,2.4,0.8c1-1.7,3.3-5.1,6.4-4.5c4.7,1,5,7,1.8,10.5s-5.8,1.9-5.9,1.9c0,1,0.1,6.2,4.5,9.1c2.7,1.8,7.6,3.5,11.8,2
		c2.8-1.1,4.8-4.3,7.6-8.6c2.2-3.6,4-7.5,5.3-11.6c1.4-4.6,1.6-6.9,0.7-10.4c-0.4-1.5-1.1-2.9-2.2-4c-1.1-1.1-2.5-1.9-4-2.3
		c-0.3-3.3-1.6-6-5.5-8.6c-7.1-4.8-16.9-2.2-22.3-0.6c-3,0.9-6.5,2.6-9.5,3.5c-1.1,0.3-2.3,0.4-3.4,0.3c-0.3,0-1.5-0.3-1.8-0.1
		s-0.2,1.3-0.1,1.7c0.1,1.5,0.7,2.9,1.7,4.1C503.1,225.2,504.4,226,505.9,226.4z"/>
	<path class="st14" d="M548.9,269.8c-6.5-1.4-10.6-2.6-10.6-2.6c-0.7,3-14.3,5.8-22.2,4c-2.4,0.6-16.8,6.7-17.5,7.1
		c0,0-3.5,10.5-4.4,30.9c-1,20.4-1.2,60.9-1.2,60.9c12.3,9.1,59,3,62.4-16.7c-0.7-7.7-0.8-15.5-0.5-23.2c0.4-8.4,1.3-16.7,2.6-25
		c1.5-8.9,2-15.5,1.3-20.6C557.9,279,554.6,271,548.9,269.8z"/>
	<path class="st29" d="M499.4,281.4c-3.2,0.5-9.9,0.8-14.5,8.2c-4.3,6.8-20.7,31.9-23.6,38.1c-1.9,4-3.3,7.3,0.7,12.2
		c2.5,3.1,25.5,22.4,26.4,23.9c1.4,2.4,1.3,10.5,1.6,11.5c0.6,2,1.6,3.7,3.2,5.1l0.1-4.3c1.2-2.7,2.9-5.1,5-7.2
		c2.7-2.9,3.2-7.2,2.8-10.4c-0.2-1.8-2.1-2.7-3.7-4.5c-6.6-7.9-15.9-18.5-15.9-18.5l20-30C503.6,302.6,507.3,292.9,499.4,281.4z"/>
	<path class="st15" d="M494.7,350.1c0.2,5.7-6.9,11.4-10.9,11.7c0,0-19.3-16.2-23.5-21.1s-2.8-7.6-0.1-13.6
		c4.3-9.5,18.8-31.9,22.1-37.4c4.2-6.8,9.2-8.4,17.6-12c4.9,2.8,10.8,15.9,3.5,30l-20.9,27.6L494.7,350.1z"/>
	<path class="st14" d="M482.7,335.4c-2.5,3.7-7.5,5.4-7.5,5.4s6.6-0.5,9.1-3.5L482.7,335.4z"/>
	<path class="st31" d="M515.4,269.9l0.5-3c4.3,0.1,8.5-0.1,12.8-0.4c6.7-0.8,8.8-3,8.8-3l1.2,2.7C538.7,266.1,532.4,273,515.4,269.9
		z"/>
	<path class="st15" d="M507,274.8c4.1-3,6-6,8.9-5.9c3.7,0.1,12.5,0.1,17-1s5.5-2.7,5.5-2.7l3.8,3.1c0,0,0.9,4.9-9.1,7
		C522.2,277.6,516.2,273.6,507,274.8z"/>
	
		<radialGradient id="SVGID_00000093893132316411960710000014511589381318222235_" cx="684.7482" cy="37.4434" r="1" gradientTransform="matrix(-1.3895 20.5372 -20.5372 -1.3895 2015.2166 -13897.3281)" gradientUnits="userSpaceOnUse">
		<stop  offset="8.877530e-03" style="stop-color:#DEF9FA"/>
		<stop  offset="0.1723" style="stop-color:#BEF3F5"/>
		<stop  offset="0.4204" style="stop-color:#9DEDF0"/>
		<stop  offset="0.5512" style="stop-color:#7DE7EB"/>
		<stop  offset="0.7154" style="stop-color:#5CE1E6"/>
		<stop  offset="1" style="stop-color:#33BBCF"/>
	</radialGradient>
	<path style="fill:url(#SVGID_00000093893132316411960710000014511589381318222235_);" d="M287,134c-8.8-0.6-15.5-8.2-14.9-17
		c0.7-8.8,8.2-15.5,17.1-14.9c8.8,0.7,15.4,8.2,14.8,17.1C303.4,127.9,295.7,134.6,287,134z"/>
</g>
</svg>
