<svg width="28" height="27" viewBox="0 0 28 27" fill="none" xmlns="http://www.w3.org/2000/svg">
<path d="M14.38 26.146C15.3534 26.1396 16.2376 25.595 16.6903 24.7298L27.2616 4.56661C27.7492 3.66321 27.6666 2.61111 27.0752 1.78037C26.4738 0.934366 25.0735 0.522671 24.0731 0.781978L16.3069 2.79663C15.5105 3.00344 14.9612 3.7305 14.9808 4.55425L15.2319 15.6553C15.2544 16.2236 14.8023 16.6936 14.2336 16.6933C13.6747 16.7025 13.2116 16.2571 13.1891 15.6888L12.9464 4.57704C12.9287 3.75326 12.3488 3.04474 11.5437 2.86423L3.67248 1.08893C2.74221 0.87289 1.82328 1.15785 1.18287 1.82376C1.10752 1.9021 1.02276 1.99024 0.957275 2.07805C0.321223 2.93666 0.259568 4.04607 0.78199 4.98204L12.0262 24.7871C12.4984 25.6371 13.4066 26.1523 14.38 26.146Z" fill="#5CE1E6"/>
</svg>
