<svg width="51" height="51" viewBox="0 0 51 51" fill="none" xmlns="http://www.w3.org/2000/svg">
<path d="M47.5809 12.7C45.3005 8.79332 42.2074 5.70017 38.3006 3.41994C34.3932 1.13982 30.1276 0 25.5008 0C20.8744 0 16.6075 1.13982 12.7008 3.41994C8.79379 5.69982 5.70064 8.79297 3.42029 12.7C1.13983 16.6072 0 20.874 0 25.5001C0 30.1263 1.14017 34.3925 3.41994 38.2999C5.70017 42.2066 8.79332 45.2997 12.7003 47.5802C16.6075 49.8602 20.874 51.0001 25.5003 51.0001C30.1266 51.0001 34.3935 49.8602 38.3005 47.5802C42.2073 45.3005 45.3003 42.2066 47.5804 38.2999C49.8602 34.3928 50.9999 30.1261 50.9999 25.5001C51 20.8735 49.8602 16.6066 47.5809 12.7ZM42.0692 30.181L38.6823 33.5686C38.2612 33.9889 37.7634 34.1994 37.1882 34.1994C36.6128 34.1994 36.1141 33.9889 35.6942 33.5686L25.5003 23.3748L15.3073 33.5686C14.8868 33.9889 14.3888 34.1994 13.8133 34.1994C13.2376 34.1994 12.7395 33.9889 12.3189 33.5686L8.93229 30.181C8.51165 29.7615 8.30127 29.2625 8.30127 28.6869C8.30127 28.1122 8.51165 27.6139 8.93229 27.1928L24.0067 12.1188C24.4273 11.6982 24.9252 11.488 25.5008 11.488C26.0763 11.488 26.5751 11.6982 26.9947 12.1188L42.0692 27.1928C42.4894 27.6139 42.7 28.1121 42.7 28.6869C42.7 29.2624 42.4899 29.7614 42.0692 30.181Z" fill="#5CE1E6"/>
</svg>
