<svg width="13" height="14" viewBox="0 0 13 14" fill="none" xmlns="http://www.w3.org/2000/svg">
<path d="M12.6256 6.97907C12.6306 6.51486 12.3781 6.08883 11.9692 5.86586L2.44153 0.660173C2.01476 0.4203 1.51242 0.451074 1.11146 0.726253C0.703148 1.00607 0.495379 1.67038 0.610832 2.14956L1.50789 5.86914C1.59998 6.25055 1.94216 6.51846 2.3351 6.51585L7.63037 6.48698C7.90153 6.48091 8.12196 6.7003 8.11716 6.97148C8.11696 7.23804 7.90079 7.45523 7.62964 7.4613L2.32931 7.48607C1.93637 7.48775 1.59379 7.75848 1.50112 8.1409L0.590186 11.8795C0.479555 12.3213 0.607907 12.7618 0.920186 13.0726C0.956924 13.1092 0.998255 13.1503 1.03959 13.1823C1.44379 13.4926 1.97227 13.5311 2.42284 13.2896L11.9584 8.09031C12.3676 7.87207 12.6207 7.44328 12.6256 6.97907Z" fill="#04ACA4"/>
</svg>
